<?xml version="1.0" encoding="utf-8" standalone="no"?>
<!DOCTYPE svg PUBLIC "-//W3C//DTD SVG 1.1//EN"
  "http://www.w3.org/Graphics/SVG/1.1/DTD/svg11.dtd">
<svg xmlns:xlink="http://www.w3.org/1999/xlink" width="789.48pt" height="708.890025pt" viewBox="0 0 789.48 708.890025" xmlns="http://www.w3.org/2000/svg" version="1.1">
 <metadata>
  <rdf:RDF xmlns:dc="http://purl.org/dc/elements/1.1/" xmlns:cc="http://creativecommons.org/ns#" xmlns:rdf="http://www.w3.org/1999/02/22-rdf-syntax-ns#">
   <cc:Work>
    <dc:type rdf:resource="http://purl.org/dc/dcmitype/StillImage"/>
    <dc:date>2026-07-25T22:25:04.746740</dc:date>
    <dc:format>image/svg+xml</dc:format>
    <dc:creator>
     <cc:Agent>
      <dc:title>Matplotlib v3.11.0, https://matplotlib.org/</dc:title>
     </cc:Agent>
    </dc:creator>
   </cc:Work>
  </rdf:RDF>
 </metadata>
 <defs>
  <style type="text/css">*{stroke-linejoin: round; stroke-linecap: butt}</style>
 </defs>
 <g id="figure_1">
  <g id="patch_1">
   <path d="M 0 708.890025 
L 789.48 708.890025 
L 789.48 0 
L 0 0 
z
" style="fill: #ffffff"/>
  </g>
  <g id="axes_1">
   <g id="patch_2">
    <path d="M 183.2875 689.762187 
L 782.28 689.762187 
L 782.28 42.043008 
L 183.2875 42.043008 
z
" style="fill: #ffffff"/>
   </g>
   <g id="matplotlib.axis_1"/>
   <g id="matplotlib.axis_2">
    <g id="ytick_1">
     <g id="line2d_1">
      <defs>
       <path id="m08c70a4b4a" d="M 0 0 
L -3.5 0 
" style="stroke: #1b2a49; stroke-width: 0.8"/>
      </defs>
      <g>
       <use xlink:href="#m08c70a4b4a" x="183.2875" y="642.705666" style="fill: #1b2a49; stroke: #1b2a49; stroke-width: 0.8"/>
      </g>
     </g>
     <g id="text_1">
      <!-- lfm25 · concurrent decode -->
      <g style="fill: #1b2a49" transform="translate(17.7375 647.264728) scale(0.12 -0.12)">
       <defs>
        <path id="DejaVuSans-4f" d="M 603 4863 
L 1178 4863 
L 1178 0 
L 603 0 
L 603 4863 
z
" transform="scale(0.015625)"/>
        <path id="DejaVuSans-49" d="M 2375 4863 
L 2375 4384 
L 1825 4384 
Q 1516 4384 1395 4259 
Q 1275 4134 1275 3809 
L 1275 3500 
L 2222 3500 
L 2222 3053 
L 1275 3053 
L 1275 0 
L 697 0 
L 697 3053 
L 147 3053 
L 147 3500 
L 697 3500 
L 697 3744 
Q 697 4328 969 4595 
Q 1241 4863 1831 4863 
L 2375 4863 
z
" transform="scale(0.015625)"/>
        <path id="DejaVuSans-50" d="M 3328 2828 
Q 3544 3216 3844 3400 
Q 4144 3584 4550 3584 
Q 5097 3584 5394 3201 
Q 5691 2819 5691 2113 
L 5691 0 
L 5113 0 
L 5113 2094 
Q 5113 2597 4934 2840 
Q 4756 3084 4391 3084 
Q 3944 3084 3684 2787 
Q 3425 2491 3425 1978 
L 3425 0 
L 2847 0 
L 2847 2094 
Q 2847 2600 2669 2842 
Q 2491 3084 2119 3084 
Q 1678 3084 1418 2786 
Q 1159 2488 1159 1978 
L 1159 0 
L 581 0 
L 581 3500 
L 1159 3500 
L 1159 2956 
Q 1356 3278 1631 3431 
Q 1906 3584 2284 3584 
Q 2666 3584 2933 3390 
Q 3200 3197 3328 2828 
z
" transform="scale(0.015625)"/>
        <path id="DejaVuSans-15" d="M 1228 531 
L 3431 531 
L 3431 0 
L 469 0 
L 469 531 
Q 828 903 1448 1529 
Q 2069 2156 2228 2338 
Q 2531 2678 2651 2914 
Q 2772 3150 2772 3378 
Q 2772 3750 2511 3984 
Q 2250 4219 1831 4219 
Q 1534 4219 1204 4116 
Q 875 4013 500 3803 
L 500 4441 
Q 881 4594 1212 4672 
Q 1544 4750 1819 4750 
Q 2544 4750 2975 4387 
Q 3406 4025 3406 3419 
Q 3406 3131 3298 2873 
Q 3191 2616 2906 2266 
Q 2828 2175 2409 1742 
Q 1991 1309 1228 531 
z
" transform="scale(0.015625)"/>
        <path id="DejaVuSans-18" d="M 691 4666 
L 3169 4666 
L 3169 4134 
L 1269 4134 
L 1269 2991 
Q 1406 3038 1543 3061 
Q 1681 3084 1819 3084 
Q 2600 3084 3056 2656 
Q 3513 2228 3513 1497 
Q 3513 744 3044 326 
Q 2575 -91 1722 -91 
Q 1428 -91 1123 -41 
Q 819 9 494 109 
L 494 744 
Q 775 591 1075 516 
Q 1375 441 1709 441 
Q 2250 441 2565 725 
Q 2881 1009 2881 1497 
Q 2881 1984 2565 2268 
Q 2250 2553 1709 2553 
Q 1456 2553 1204 2497 
Q 953 2441 691 2322 
L 691 4666 
z
" transform="scale(0.015625)"/>
        <path id="DejaVuSans-3" transform="scale(0.015625)"/>
        <path id="DejaVuSans-79" d="M 684 2619 
L 1344 2619 
L 1344 1825 
L 684 1825 
L 684 2619 
z
" transform="scale(0.015625)"/>
        <path id="DejaVuSans-46" d="M 3122 3366 
L 3122 2828 
Q 2878 2963 2633 3030 
Q 2388 3097 2138 3097 
Q 1578 3097 1268 2742 
Q 959 2388 959 1747 
Q 959 1106 1268 751 
Q 1578 397 2138 397 
Q 2388 397 2633 464 
Q 2878 531 3122 666 
L 3122 134 
Q 2881 22 2623 -34 
Q 2366 -91 2075 -91 
Q 1284 -91 818 406 
Q 353 903 353 1747 
Q 353 2603 823 3093 
Q 1294 3584 2113 3584 
Q 2378 3584 2631 3529 
Q 2884 3475 3122 3366 
z
" transform="scale(0.015625)"/>
        <path id="DejaVuSans-52" d="M 1959 3097 
Q 1497 3097 1228 2736 
Q 959 2375 959 1747 
Q 959 1119 1226 758 
Q 1494 397 1959 397 
Q 2419 397 2687 759 
Q 2956 1122 2956 1747 
Q 2956 2369 2687 2733 
Q 2419 3097 1959 3097 
z
M 1959 3584 
Q 2709 3584 3137 3096 
Q 3566 2609 3566 1747 
Q 3566 888 3137 398 
Q 2709 -91 1959 -91 
Q 1206 -91 779 398 
Q 353 888 353 1747 
Q 353 2609 779 3096 
Q 1206 3584 1959 3584 
z
" transform="scale(0.015625)"/>
        <path id="DejaVuSans-51" d="M 3513 2113 
L 3513 0 
L 2938 0 
L 2938 2094 
Q 2938 2591 2744 2837 
Q 2550 3084 2163 3084 
Q 1697 3084 1428 2787 
Q 1159 2491 1159 1978 
L 1159 0 
L 581 0 
L 581 3500 
L 1159 3500 
L 1159 2956 
Q 1366 3272 1645 3428 
Q 1925 3584 2291 3584 
Q 2894 3584 3203 3211 
Q 3513 2838 3513 2113 
z
" transform="scale(0.015625)"/>
        <path id="DejaVuSans-58" d="M 544 1381 
L 544 3500 
L 1119 3500 
L 1119 1403 
Q 1119 906 1312 657 
Q 1506 409 1894 409 
Q 2359 409 2629 706 
Q 2900 1003 2900 1516 
L 2900 3500 
L 3475 3500 
L 3475 0 
L 2900 0 
L 2900 538 
Q 2691 219 2414 64 
Q 2138 -91 1772 -91 
Q 1169 -91 856 284 
Q 544 659 544 1381 
z
M 1991 3584 
L 1991 3584 
z
" transform="scale(0.015625)"/>
        <path id="DejaVuSans-55" d="M 2631 2963 
Q 2534 3019 2420 3045 
Q 2306 3072 2169 3072 
Q 1681 3072 1420 2755 
Q 1159 2438 1159 1844 
L 1159 0 
L 581 0 
L 581 3500 
L 1159 3500 
L 1159 2956 
Q 1341 3275 1631 3429 
Q 1922 3584 2338 3584 
Q 2397 3584 2469 3576 
Q 2541 3569 2628 3553 
L 2631 2963 
z
" transform="scale(0.015625)"/>
        <path id="DejaVuSans-48" d="M 3597 1894 
L 3597 1613 
L 953 1613 
Q 991 1019 1311 708 
Q 1631 397 2203 397 
Q 2534 397 2845 478 
Q 3156 559 3463 722 
L 3463 178 
Q 3153 47 2828 -22 
Q 2503 -91 2169 -91 
Q 1331 -91 842 396 
Q 353 884 353 1716 
Q 353 2575 817 3079 
Q 1281 3584 2069 3584 
Q 2775 3584 3186 3129 
Q 3597 2675 3597 1894 
z
M 3022 2063 
Q 3016 2534 2758 2815 
Q 2500 3097 2075 3097 
Q 1594 3097 1305 2825 
Q 1016 2553 972 2059 
L 3022 2063 
z
" transform="scale(0.015625)"/>
        <path id="DejaVuSans-57" d="M 1172 4494 
L 1172 3500 
L 2356 3500 
L 2356 3053 
L 1172 3053 
L 1172 1153 
Q 1172 725 1289 603 
Q 1406 481 1766 481 
L 2356 481 
L 2356 0 
L 1766 0 
Q 1100 0 847 248 
Q 594 497 594 1153 
L 594 3053 
L 172 3053 
L 172 3500 
L 594 3500 
L 594 4494 
L 1172 4494 
z
" transform="scale(0.015625)"/>
        <path id="DejaVuSans-47" d="M 2906 2969 
L 2906 4863 
L 3481 4863 
L 3481 0 
L 2906 0 
L 2906 525 
Q 2725 213 2448 61 
Q 2172 -91 1784 -91 
Q 1150 -91 751 415 
Q 353 922 353 1747 
Q 353 2572 751 3078 
Q 1150 3584 1784 3584 
Q 2172 3584 2448 3432 
Q 2725 3281 2906 2969 
z
M 947 1747 
Q 947 1113 1208 752 
Q 1469 391 1925 391 
Q 2381 391 2643 752 
Q 2906 1113 2906 1747 
Q 2906 2381 2643 2742 
Q 2381 3103 1925 3103 
Q 1469 3103 1208 2742 
Q 947 2381 947 1747 
z
" transform="scale(0.015625)"/>
       </defs>
       <use xlink:href="#DejaVuSans-4f"/>
       <use xlink:href="#DejaVuSans-49" transform="translate(27.78125 0)"/>
       <use xlink:href="#DejaVuSans-50" transform="translate(62.984375 0)"/>
       <use xlink:href="#DejaVuSans-15" transform="translate(160.390625 0)"/>
       <use xlink:href="#DejaVuSans-18" transform="translate(224.015625 0)"/>
       <use xlink:href="#DejaVuSans-3" transform="translate(287.640625 0)"/>
       <use xlink:href="#DejaVuSans-79" transform="translate(319.421875 0)"/>
       <use xlink:href="#DejaVuSans-3" transform="translate(351.203125 0)"/>
       <use xlink:href="#DejaVuSans-46" transform="translate(382.984375 0)"/>
       <use xlink:href="#DejaVuSans-52" transform="translate(437.96875 0)"/>
       <use xlink:href="#DejaVuSans-51" transform="translate(499.15625 0)"/>
       <use xlink:href="#DejaVuSans-46" transform="translate(562.53125 0)"/>
       <use xlink:href="#DejaVuSans-58" transform="translate(617.515625 0)"/>
       <use xlink:href="#DejaVuSans-55" transform="translate(680.890625 0)"/>
       <use xlink:href="#DejaVuSans-55" transform="translate(720.25 0)"/>
       <use xlink:href="#DejaVuSans-48" transform="translate(759.15625 0)"/>
       <use xlink:href="#DejaVuSans-51" transform="translate(820.6875 0)"/>
       <use xlink:href="#DejaVuSans-57" transform="translate(884.0625 0)"/>
       <use xlink:href="#DejaVuSans-3" transform="translate(923.265625 0)"/>
       <use xlink:href="#DejaVuSans-47" transform="translate(955.046875 0)"/>
       <use xlink:href="#DejaVuSans-48" transform="translate(1018.53125 0)"/>
       <use xlink:href="#DejaVuSans-46" transform="translate(1080.0625 0)"/>
       <use xlink:href="#DejaVuSans-52" transform="translate(1135.046875 0)"/>
       <use xlink:href="#DejaVuSans-47" transform="translate(1196.234375 0)"/>
       <use xlink:href="#DejaVuSans-48" transform="translate(1259.71875 0)"/>
      </g>
     </g>
    </g>
    <g id="ytick_2">
     <g id="line2d_2">
      <g>
       <use xlink:href="#m08c70a4b4a" x="183.2875" y="592.377835" style="fill: #1b2a49; stroke: #1b2a49; stroke-width: 0.8"/>
      </g>
     </g>
     <g id="text_2">
      <!-- lfm25 · long prefill -->
      <g style="fill: #1b2a49" transform="translate(66.72 596.936898) scale(0.12 -0.12)">
       <defs>
        <path id="DejaVuSans-4a" d="M 2906 1791 
Q 2906 2416 2648 2759 
Q 2391 3103 1925 3103 
Q 1463 3103 1205 2759 
Q 947 2416 947 1791 
Q 947 1169 1205 825 
Q 1463 481 1925 481 
Q 2391 481 2648 825 
Q 2906 1169 2906 1791 
z
M 3481 434 
Q 3481 -459 3084 -895 
Q 2688 -1331 1869 -1331 
Q 1566 -1331 1297 -1286 
Q 1028 -1241 775 -1147 
L 775 -588 
Q 1028 -725 1275 -790 
Q 1522 -856 1778 -856 
Q 2344 -856 2625 -561 
Q 2906 -266 2906 331 
L 2906 616 
Q 2728 306 2450 153 
Q 2172 0 1784 0 
Q 1141 0 747 490 
Q 353 981 353 1791 
Q 353 2603 747 3093 
Q 1141 3584 1784 3584 
Q 2172 3584 2450 3431 
Q 2728 3278 2906 2969 
L 2906 3500 
L 3481 3500 
L 3481 434 
z
" transform="scale(0.015625)"/>
        <path id="DejaVuSans-53" d="M 1159 525 
L 1159 -1331 
L 581 -1331 
L 581 3500 
L 1159 3500 
L 1159 2969 
Q 1341 3281 1617 3432 
Q 1894 3584 2278 3584 
Q 2916 3584 3314 3078 
Q 3713 2572 3713 1747 
Q 3713 922 3314 415 
Q 2916 -91 2278 -91 
Q 1894 -91 1617 61 
Q 1341 213 1159 525 
z
M 3116 1747 
Q 3116 2381 2855 2742 
Q 2594 3103 2138 3103 
Q 1681 3103 1420 2742 
Q 1159 2381 1159 1747 
Q 1159 1113 1420 752 
Q 1681 391 2138 391 
Q 2594 391 2855 752 
Q 3116 1113 3116 1747 
z
" transform="scale(0.015625)"/>
        <path id="DejaVuSans-13af" d="M 3431 3500 
L 3431 0 
L 2853 0 
L 2853 3053 
L 1275 3053 
L 1275 0 
L 697 0 
L 697 3053 
L 147 3053 
L 147 3500 
L 697 3500 
L 697 3744 
Q 697 4316 967 4589 
Q 1238 4863 1797 4863 
L 2375 4863 
L 2375 4384 
L 1825 4384 
Q 1516 4384 1395 4259 
Q 1275 4134 1275 3809 
L 1275 3500 
L 3431 3500 
z
M 2853 4856 
L 3431 4856 
L 3431 4128 
L 2853 4128 
L 2853 4856 
z
" transform="scale(0.015625)"/>
       </defs>
       <use xlink:href="#DejaVuSans-4f"/>
       <use xlink:href="#DejaVuSans-49" transform="translate(27.78125 0)"/>
       <use xlink:href="#DejaVuSans-50" transform="translate(62.984375 0)"/>
       <use xlink:href="#DejaVuSans-15" transform="translate(160.390625 0)"/>
       <use xlink:href="#DejaVuSans-18" transform="translate(224.015625 0)"/>
       <use xlink:href="#DejaVuSans-3" transform="translate(287.640625 0)"/>
       <use xlink:href="#DejaVuSans-79" transform="translate(319.421875 0)"/>
       <use xlink:href="#DejaVuSans-3" transform="translate(351.203125 0)"/>
       <use xlink:href="#DejaVuSans-4f" transform="translate(382.984375 0)"/>
       <use xlink:href="#DejaVuSans-52" transform="translate(410.765625 0)"/>
       <use xlink:href="#DejaVuSans-51" transform="translate(471.953125 0)"/>
       <use xlink:href="#DejaVuSans-4a" transform="translate(535.328125 0)"/>
       <use xlink:href="#DejaVuSans-3" transform="translate(598.8125 0)"/>
       <use xlink:href="#DejaVuSans-53" transform="translate(630.59375 0)"/>
       <use xlink:href="#DejaVuSans-55" transform="translate(694.078125 0)"/>
       <use xlink:href="#DejaVuSans-48" transform="translate(732.984375 0)"/>
       <use xlink:href="#DejaVuSans-13af" transform="translate(794.515625 0)"/>
       <use xlink:href="#DejaVuSans-4f" transform="translate(857.5 0)"/>
       <use xlink:href="#DejaVuSans-4f" transform="translate(885.28125 0)"/>
      </g>
     </g>
    </g>
    <g id="ytick_3">
     <g id="line2d_3">
      <g>
       <use xlink:href="#m08c70a4b4a" x="183.2875" y="542.050005" style="fill: #1b2a49; stroke: #1b2a49; stroke-width: 0.8"/>
      </g>
     </g>
     <g id="text_3">
      <!-- lfm25 · medium balanced -->
      <g style="fill: #1b2a49" transform="translate(22.333125 546.609067) scale(0.12 -0.12)">
       <defs>
        <path id="DejaVuSans-4c" d="M 603 3500 
L 1178 3500 
L 1178 0 
L 603 0 
L 603 3500 
z
M 603 4863 
L 1178 4863 
L 1178 4134 
L 603 4134 
L 603 4863 
z
" transform="scale(0.015625)"/>
        <path id="DejaVuSans-45" d="M 3116 1747 
Q 3116 2381 2855 2742 
Q 2594 3103 2138 3103 
Q 1681 3103 1420 2742 
Q 1159 2381 1159 1747 
Q 1159 1113 1420 752 
Q 1681 391 2138 391 
Q 2594 391 2855 752 
Q 3116 1113 3116 1747 
z
M 1159 2969 
Q 1341 3281 1617 3432 
Q 1894 3584 2278 3584 
Q 2916 3584 3314 3078 
Q 3713 2572 3713 1747 
Q 3713 922 3314 415 
Q 2916 -91 2278 -91 
Q 1894 -91 1617 61 
Q 1341 213 1159 525 
L 1159 0 
L 581 0 
L 581 4863 
L 1159 4863 
L 1159 2969 
z
" transform="scale(0.015625)"/>
        <path id="DejaVuSans-44" d="M 2194 1759 
Q 1497 1759 1228 1600 
Q 959 1441 959 1056 
Q 959 750 1161 570 
Q 1363 391 1709 391 
Q 2188 391 2477 730 
Q 2766 1069 2766 1631 
L 2766 1759 
L 2194 1759 
z
M 3341 1997 
L 3341 0 
L 2766 0 
L 2766 531 
Q 2569 213 2275 61 
Q 1981 -91 1556 -91 
Q 1019 -91 701 211 
Q 384 513 384 1019 
Q 384 1609 779 1909 
Q 1175 2209 1959 2209 
L 2766 2209 
L 2766 2266 
Q 2766 2663 2505 2880 
Q 2244 3097 1772 3097 
Q 1472 3097 1187 3025 
Q 903 2953 641 2809 
L 641 3341 
Q 956 3463 1253 3523 
Q 1550 3584 1831 3584 
Q 2591 3584 2966 3190 
Q 3341 2797 3341 1997 
z
" transform="scale(0.015625)"/>
       </defs>
       <use xlink:href="#DejaVuSans-4f"/>
       <use xlink:href="#DejaVuSans-49" transform="translate(27.78125 0)"/>
       <use xlink:href="#DejaVuSans-50" transform="translate(62.984375 0)"/>
       <use xlink:href="#DejaVuSans-15" transform="translate(160.390625 0)"/>
       <use xlink:href="#DejaVuSans-18" transform="translate(224.015625 0)"/>
       <use xlink:href="#DejaVuSans-3" transform="translate(287.640625 0)"/>
       <use xlink:href="#DejaVuSans-79" transform="translate(319.421875 0)"/>
       <use xlink:href="#DejaVuSans-3" transform="translate(351.203125 0)"/>
       <use xlink:href="#DejaVuSans-50" transform="translate(382.984375 0)"/>
       <use xlink:href="#DejaVuSans-48" transform="translate(480.390625 0)"/>
       <use xlink:href="#DejaVuSans-47" transform="translate(541.921875 0)"/>
       <use xlink:href="#DejaVuSans-4c" transform="translate(605.40625 0)"/>
       <use xlink:href="#DejaVuSans-58" transform="translate(633.1875 0)"/>
       <use xlink:href="#DejaVuSans-50" transform="translate(696.5625 0)"/>
       <use xlink:href="#DejaVuSans-3" transform="translate(793.96875 0)"/>
       <use xlink:href="#DejaVuSans-45" transform="translate(825.75 0)"/>
       <use xlink:href="#DejaVuSans-44" transform="translate(889.234375 0)"/>
       <use xlink:href="#DejaVuSans-4f" transform="translate(950.515625 0)"/>
       <use xlink:href="#DejaVuSans-44" transform="translate(978.296875 0)"/>
       <use xlink:href="#DejaVuSans-51" transform="translate(1039.578125 0)"/>
       <use xlink:href="#DejaVuSans-46" transform="translate(1102.953125 0)"/>
       <use xlink:href="#DejaVuSans-48" transform="translate(1157.9375 0)"/>
       <use xlink:href="#DejaVuSans-47" transform="translate(1219.46875 0)"/>
      </g>
     </g>
    </g>
    <g id="ytick_4">
     <g id="line2d_4">
      <g>
       <use xlink:href="#m08c70a4b4a" x="183.2875" y="491.722174" style="fill: #1b2a49; stroke: #1b2a49; stroke-width: 0.8"/>
      </g>
     </g>
     <g id="text_4">
      <!-- lfm25 · short decode -->
      <g style="fill: #1b2a49" transform="translate(51.735 496.281237) scale(0.12 -0.12)">
       <defs>
        <path id="DejaVuSans-56" d="M 2834 3397 
L 2834 2853 
Q 2591 2978 2328 3040 
Q 2066 3103 1784 3103 
Q 1356 3103 1142 2972 
Q 928 2841 928 2578 
Q 928 2378 1081 2264 
Q 1234 2150 1697 2047 
L 1894 2003 
Q 2506 1872 2764 1633 
Q 3022 1394 3022 966 
Q 3022 478 2636 193 
Q 2250 -91 1575 -91 
Q 1294 -91 989 -36 
Q 684 19 347 128 
L 347 722 
Q 666 556 975 473 
Q 1284 391 1588 391 
Q 1994 391 2212 530 
Q 2431 669 2431 922 
Q 2431 1156 2273 1281 
Q 2116 1406 1581 1522 
L 1381 1569 
Q 847 1681 609 1914 
Q 372 2147 372 2553 
Q 372 3047 722 3315 
Q 1072 3584 1716 3584 
Q 2034 3584 2315 3537 
Q 2597 3491 2834 3397 
z
" transform="scale(0.015625)"/>
        <path id="DejaVuSans-4b" d="M 3513 2113 
L 3513 0 
L 2938 0 
L 2938 2094 
Q 2938 2591 2744 2837 
Q 2550 3084 2163 3084 
Q 1697 3084 1428 2787 
Q 1159 2491 1159 1978 
L 1159 0 
L 581 0 
L 581 4863 
L 1159 4863 
L 1159 2956 
Q 1366 3272 1645 3428 
Q 1925 3584 2291 3584 
Q 2894 3584 3203 3211 
Q 3513 2838 3513 2113 
z
" transform="scale(0.015625)"/>
       </defs>
       <use xlink:href="#DejaVuSans-4f"/>
       <use xlink:href="#DejaVuSans-49" transform="translate(27.78125 0)"/>
       <use xlink:href="#DejaVuSans-50" transform="translate(62.984375 0)"/>
       <use xlink:href="#DejaVuSans-15" transform="translate(160.390625 0)"/>
       <use xlink:href="#DejaVuSans-18" transform="translate(224.015625 0)"/>
       <use xlink:href="#DejaVuSans-3" transform="translate(287.640625 0)"/>
       <use xlink:href="#DejaVuSans-79" transform="translate(319.421875 0)"/>
       <use xlink:href="#DejaVuSans-3" transform="translate(351.203125 0)"/>
       <use xlink:href="#DejaVuSans-56" transform="translate(382.984375 0)"/>
       <use xlink:href="#DejaVuSans-4b" transform="translate(435.078125 0)"/>
       <use xlink:href="#DejaVuSans-52" transform="translate(498.453125 0)"/>
       <use xlink:href="#DejaVuSans-55" transform="translate(559.640625 0)"/>
       <use xlink:href="#DejaVuSans-57" transform="translate(600.75 0)"/>
       <use xlink:href="#DejaVuSans-3" transform="translate(639.953125 0)"/>
       <use xlink:href="#DejaVuSans-47" transform="translate(671.734375 0)"/>
       <use xlink:href="#DejaVuSans-48" transform="translate(735.21875 0)"/>
       <use xlink:href="#DejaVuSans-46" transform="translate(796.75 0)"/>
       <use xlink:href="#DejaVuSans-52" transform="translate(851.734375 0)"/>
       <use xlink:href="#DejaVuSans-47" transform="translate(912.921875 0)"/>
       <use xlink:href="#DejaVuSans-48" transform="translate(976.40625 0)"/>
      </g>
     </g>
    </g>
    <g id="ytick_5">
     <g id="line2d_5">
      <g>
       <use xlink:href="#m08c70a4b4a" x="183.2875" y="441.394344" style="fill: #1b2a49; stroke: #1b2a49; stroke-width: 0.8"/>
      </g>
     </g>
     <g id="text_5">
      <!-- lfm25 · shared-prefix -->
      <g style="fill: #1b2a49" transform="translate(50.788125 445.953406) scale(0.12 -0.12)">
       <defs>
        <path id="DejaVuSans-10" d="M 313 2009 
L 1997 2009 
L 1997 1497 
L 313 1497 
L 313 2009 
z
" transform="scale(0.015625)"/>
        <path id="DejaVuSans-5b" d="M 3513 3500 
L 2247 1797 
L 3578 0 
L 2900 0 
L 1881 1375 
L 863 0 
L 184 0 
L 1544 1831 
L 300 3500 
L 978 3500 
L 1906 2253 
L 2834 3500 
L 3513 3500 
z
" transform="scale(0.015625)"/>
       </defs>
       <use xlink:href="#DejaVuSans-4f"/>
       <use xlink:href="#DejaVuSans-49" transform="translate(27.78125 0)"/>
       <use xlink:href="#DejaVuSans-50" transform="translate(62.984375 0)"/>
       <use xlink:href="#DejaVuSans-15" transform="translate(160.390625 0)"/>
       <use xlink:href="#DejaVuSans-18" transform="translate(224.015625 0)"/>
       <use xlink:href="#DejaVuSans-3" transform="translate(287.640625 0)"/>
       <use xlink:href="#DejaVuSans-79" transform="translate(319.421875 0)"/>
       <use xlink:href="#DejaVuSans-3" transform="translate(351.203125 0)"/>
       <use xlink:href="#DejaVuSans-56" transform="translate(382.984375 0)"/>
       <use xlink:href="#DejaVuSans-4b" transform="translate(435.078125 0)"/>
       <use xlink:href="#DejaVuSans-44" transform="translate(498.453125 0)"/>
       <use xlink:href="#DejaVuSans-55" transform="translate(559.734375 0)"/>
       <use xlink:href="#DejaVuSans-48" transform="translate(598.640625 0)"/>
       <use xlink:href="#DejaVuSans-47" transform="translate(660.171875 0)"/>
       <use xlink:href="#DejaVuSans-10" transform="translate(723.65625 0)"/>
       <use xlink:href="#DejaVuSans-53" transform="translate(759.734375 0)"/>
       <use xlink:href="#DejaVuSans-55" transform="translate(823.21875 0)"/>
       <use xlink:href="#DejaVuSans-48" transform="translate(862.125 0)"/>
       <use xlink:href="#DejaVuSans-13af" transform="translate(923.65625 0)"/>
       <use xlink:href="#DejaVuSans-5b" transform="translate(986.640625 0)"/>
      </g>
     </g>
    </g>
    <g id="ytick_6">
     <g id="line2d_6">
      <g>
       <use xlink:href="#m08c70a4b4a" x="183.2875" y="391.066513" style="fill: #1b2a49; stroke: #1b2a49; stroke-width: 0.8"/>
      </g>
     </g>
     <g id="text_6">
      <!-- lfm25 · tool-agent -->
      <g style="fill: #1b2a49" transform="translate(68.611875 395.625575) scale(0.12 -0.12)">
       <use xlink:href="#DejaVuSans-4f"/>
       <use xlink:href="#DejaVuSans-49" transform="translate(27.78125 0)"/>
       <use xlink:href="#DejaVuSans-50" transform="translate(62.984375 0)"/>
       <use xlink:href="#DejaVuSans-15" transform="translate(160.390625 0)"/>
       <use xlink:href="#DejaVuSans-18" transform="translate(224.015625 0)"/>
       <use xlink:href="#DejaVuSans-3" transform="translate(287.640625 0)"/>
       <use xlink:href="#DejaVuSans-79" transform="translate(319.421875 0)"/>
       <use xlink:href="#DejaVuSans-3" transform="translate(351.203125 0)"/>
       <use xlink:href="#DejaVuSans-57" transform="translate(382.984375 0)"/>
       <use xlink:href="#DejaVuSans-52" transform="translate(422.1875 0)"/>
       <use xlink:href="#DejaVuSans-52" transform="translate(483.375 0)"/>
       <use xlink:href="#DejaVuSans-4f" transform="translate(544.5625 0)"/>
       <use xlink:href="#DejaVuSans-10" transform="translate(572.34375 0)"/>
       <use xlink:href="#DejaVuSans-44" transform="translate(608.421875 0)"/>
       <use xlink:href="#DejaVuSans-4a" transform="translate(669.703125 0)"/>
       <use xlink:href="#DejaVuSans-48" transform="translate(733.1875 0)"/>
       <use xlink:href="#DejaVuSans-51" transform="translate(794.71875 0)"/>
       <use xlink:href="#DejaVuSans-57" transform="translate(858.09375 0)"/>
      </g>
     </g>
    </g>
    <g id="ytick_7">
     <g id="line2d_7">
      <g>
       <use xlink:href="#m08c70a4b4a" x="183.2875" y="340.738682" style="fill: #1b2a49; stroke: #1b2a49; stroke-width: 0.8"/>
      </g>
     </g>
     <g id="text_7">
      <!-- qwen · concurrent decode -->
      <g style="fill: #1b2a49" transform="translate(19.83375 345.297745) scale(0.12 -0.12)">
       <defs>
        <path id="DejaVuSans-54" d="M 947 1747 
Q 947 1113 1208 752 
Q 1469 391 1925 391 
Q 2381 391 2643 752 
Q 2906 1113 2906 1747 
Q 2906 2381 2643 2742 
Q 2381 3103 1925 3103 
Q 1469 3103 1208 2742 
Q 947 2381 947 1747 
z
M 2906 525 
Q 2725 213 2448 61 
Q 2172 -91 1784 -91 
Q 1150 -91 751 415 
Q 353 922 353 1747 
Q 353 2572 751 3078 
Q 1150 3584 1784 3584 
Q 2172 3584 2448 3432 
Q 2725 3281 2906 2969 
L 2906 3500 
L 3481 3500 
L 3481 -1331 
L 2906 -1331 
L 2906 525 
z
" transform="scale(0.015625)"/>
        <path id="DejaVuSans-5a" d="M 269 3500 
L 844 3500 
L 1563 769 
L 2278 3500 
L 2956 3500 
L 3675 769 
L 4391 3500 
L 4966 3500 
L 4050 0 
L 3372 0 
L 2619 2869 
L 1863 0 
L 1184 0 
L 269 3500 
z
" transform="scale(0.015625)"/>
       </defs>
       <use xlink:href="#DejaVuSans-54"/>
       <use xlink:href="#DejaVuSans-5a" transform="translate(63.484375 0)"/>
       <use xlink:href="#DejaVuSans-48" transform="translate(145.265625 0)"/>
       <use xlink:href="#DejaVuSans-51" transform="translate(206.796875 0)"/>
       <use xlink:href="#DejaVuSans-3" transform="translate(270.171875 0)"/>
       <use xlink:href="#DejaVuSans-79" transform="translate(301.953125 0)"/>
       <use xlink:href="#DejaVuSans-3" transform="translate(333.734375 0)"/>
       <use xlink:href="#DejaVuSans-46" transform="translate(365.515625 0)"/>
       <use xlink:href="#DejaVuSans-52" transform="translate(420.5 0)"/>
       <use xlink:href="#DejaVuSans-51" transform="translate(481.6875 0)"/>
       <use xlink:href="#DejaVuSans-46" transform="translate(545.0625 0)"/>
       <use xlink:href="#DejaVuSans-58" transform="translate(600.046875 0)"/>
       <use xlink:href="#DejaVuSans-55" transform="translate(663.421875 0)"/>
       <use xlink:href="#DejaVuSans-55" transform="translate(702.78125 0)"/>
       <use xlink:href="#DejaVuSans-48" transform="translate(741.6875 0)"/>
       <use xlink:href="#DejaVuSans-51" transform="translate(803.21875 0)"/>
       <use xlink:href="#DejaVuSans-57" transform="translate(866.59375 0)"/>
       <use xlink:href="#DejaVuSans-3" transform="translate(905.796875 0)"/>
       <use xlink:href="#DejaVuSans-47" transform="translate(937.578125 0)"/>
       <use xlink:href="#DejaVuSans-48" transform="translate(1001.0625 0)"/>
       <use xlink:href="#DejaVuSans-46" transform="translate(1062.59375 0)"/>
       <use xlink:href="#DejaVuSans-52" transform="translate(1117.578125 0)"/>
       <use xlink:href="#DejaVuSans-47" transform="translate(1178.765625 0)"/>
       <use xlink:href="#DejaVuSans-48" transform="translate(1242.25 0)"/>
      </g>
     </g>
    </g>
    <g id="ytick_8">
     <g id="line2d_8">
      <g>
       <use xlink:href="#m08c70a4b4a" x="183.2875" y="290.410852" style="fill: #1b2a49; stroke: #1b2a49; stroke-width: 0.8"/>
      </g>
     </g>
     <g id="text_8">
      <!-- qwen · long prefill -->
      <g style="fill: #1b2a49" transform="translate(68.81625 294.969914) scale(0.12 -0.12)">
       <use xlink:href="#DejaVuSans-54"/>
       <use xlink:href="#DejaVuSans-5a" transform="translate(63.484375 0)"/>
       <use xlink:href="#DejaVuSans-48" transform="translate(145.265625 0)"/>
       <use xlink:href="#DejaVuSans-51" transform="translate(206.796875 0)"/>
       <use xlink:href="#DejaVuSans-3" transform="translate(270.171875 0)"/>
       <use xlink:href="#DejaVuSans-79" transform="translate(301.953125 0)"/>
       <use xlink:href="#DejaVuSans-3" transform="translate(333.734375 0)"/>
       <use xlink:href="#DejaVuSans-4f" transform="translate(365.515625 0)"/>
       <use xlink:href="#DejaVuSans-52" transform="translate(393.296875 0)"/>
       <use xlink:href="#DejaVuSans-51" transform="translate(454.484375 0)"/>
       <use xlink:href="#DejaVuSans-4a" transform="translate(517.859375 0)"/>
       <use xlink:href="#DejaVuSans-3" transform="translate(581.34375 0)"/>
       <use xlink:href="#DejaVuSans-53" transform="translate(613.125 0)"/>
       <use xlink:href="#DejaVuSans-55" transform="translate(676.609375 0)"/>
       <use xlink:href="#DejaVuSans-48" transform="translate(715.515625 0)"/>
       <use xlink:href="#DejaVuSans-13af" transform="translate(777.046875 0)"/>
       <use xlink:href="#DejaVuSans-4f" transform="translate(840.03125 0)"/>
       <use xlink:href="#DejaVuSans-4f" transform="translate(867.8125 0)"/>
      </g>
     </g>
    </g>
    <g id="ytick_9">
     <g id="line2d_9">
      <g>
       <use xlink:href="#m08c70a4b4a" x="183.2875" y="240.083021" style="fill: #1b2a49; stroke: #1b2a49; stroke-width: 0.8"/>
      </g>
     </g>
     <g id="text_9">
      <!-- qwen · medium balanced -->
      <g style="fill: #1b2a49" transform="translate(24.429375 244.642084) scale(0.12 -0.12)">
       <use xlink:href="#DejaVuSans-54"/>
       <use xlink:href="#DejaVuSans-5a" transform="translate(63.484375 0)"/>
       <use xlink:href="#DejaVuSans-48" transform="translate(145.265625 0)"/>
       <use xlink:href="#DejaVuSans-51" transform="translate(206.796875 0)"/>
       <use xlink:href="#DejaVuSans-3" transform="translate(270.171875 0)"/>
       <use xlink:href="#DejaVuSans-79" transform="translate(301.953125 0)"/>
       <use xlink:href="#DejaVuSans-3" transform="translate(333.734375 0)"/>
       <use xlink:href="#DejaVuSans-50" transform="translate(365.515625 0)"/>
       <use xlink:href="#DejaVuSans-48" transform="translate(462.921875 0)"/>
       <use xlink:href="#DejaVuSans-47" transform="translate(524.453125 0)"/>
       <use xlink:href="#DejaVuSans-4c" transform="translate(587.9375 0)"/>
       <use xlink:href="#DejaVuSans-58" transform="translate(615.71875 0)"/>
       <use xlink:href="#DejaVuSans-50" transform="translate(679.09375 0)"/>
       <use xlink:href="#DejaVuSans-3" transform="translate(776.5 0)"/>
       <use xlink:href="#DejaVuSans-45" transform="translate(808.28125 0)"/>
       <use xlink:href="#DejaVuSans-44" transform="translate(871.765625 0)"/>
       <use xlink:href="#DejaVuSans-4f" transform="translate(933.046875 0)"/>
       <use xlink:href="#DejaVuSans-44" transform="translate(960.828125 0)"/>
       <use xlink:href="#DejaVuSans-51" transform="translate(1022.109375 0)"/>
       <use xlink:href="#DejaVuSans-46" transform="translate(1085.484375 0)"/>
       <use xlink:href="#DejaVuSans-48" transform="translate(1140.46875 0)"/>
       <use xlink:href="#DejaVuSans-47" transform="translate(1202 0)"/>
      </g>
     </g>
    </g>
    <g id="ytick_10">
     <g id="line2d_10">
      <g>
       <use xlink:href="#m08c70a4b4a" x="183.2875" y="189.755191" style="fill: #1b2a49; stroke: #1b2a49; stroke-width: 0.8"/>
      </g>
     </g>
     <g id="text_10">
      <!-- qwen · short decode -->
      <g style="fill: #1b2a49" transform="translate(53.83125 194.314253) scale(0.12 -0.12)">
       <use xlink:href="#DejaVuSans-54"/>
       <use xlink:href="#DejaVuSans-5a" transform="translate(63.484375 0)"/>
       <use xlink:href="#DejaVuSans-48" transform="translate(145.265625 0)"/>
       <use xlink:href="#DejaVuSans-51" transform="translate(206.796875 0)"/>
       <use xlink:href="#DejaVuSans-3" transform="translate(270.171875 0)"/>
       <use xlink:href="#DejaVuSans-79" transform="translate(301.953125 0)"/>
       <use xlink:href="#DejaVuSans-3" transform="translate(333.734375 0)"/>
       <use xlink:href="#DejaVuSans-56" transform="translate(365.515625 0)"/>
       <use xlink:href="#DejaVuSans-4b" transform="translate(417.609375 0)"/>
       <use xlink:href="#DejaVuSans-52" transform="translate(480.984375 0)"/>
       <use xlink:href="#DejaVuSans-55" transform="translate(542.171875 0)"/>
       <use xlink:href="#DejaVuSans-57" transform="translate(583.28125 0)"/>
       <use xlink:href="#DejaVuSans-3" transform="translate(622.484375 0)"/>
       <use xlink:href="#DejaVuSans-47" transform="translate(654.265625 0)"/>
       <use xlink:href="#DejaVuSans-48" transform="translate(717.75 0)"/>
       <use xlink:href="#DejaVuSans-46" transform="translate(779.28125 0)"/>
       <use xlink:href="#DejaVuSans-52" transform="translate(834.265625 0)"/>
       <use xlink:href="#DejaVuSans-47" transform="translate(895.453125 0)"/>
       <use xlink:href="#DejaVuSans-48" transform="translate(958.9375 0)"/>
      </g>
     </g>
    </g>
    <g id="ytick_11">
     <g id="line2d_11">
      <g>
       <use xlink:href="#m08c70a4b4a" x="183.2875" y="139.42736" style="fill: #1b2a49; stroke: #1b2a49; stroke-width: 0.8"/>
      </g>
     </g>
     <g id="text_11">
      <!-- qwen · shared-prefix -->
      <g style="fill: #1b2a49" transform="translate(52.884375 143.986423) scale(0.12 -0.12)">
       <use xlink:href="#DejaVuSans-54"/>
       <use xlink:href="#DejaVuSans-5a" transform="translate(63.484375 0)"/>
       <use xlink:href="#DejaVuSans-48" transform="translate(145.265625 0)"/>
       <use xlink:href="#DejaVuSans-51" transform="translate(206.796875 0)"/>
       <use xlink:href="#DejaVuSans-3" transform="translate(270.171875 0)"/>
       <use xlink:href="#DejaVuSans-79" transform="translate(301.953125 0)"/>
       <use xlink:href="#DejaVuSans-3" transform="translate(333.734375 0)"/>
       <use xlink:href="#DejaVuSans-56" transform="translate(365.515625 0)"/>
       <use xlink:href="#DejaVuSans-4b" transform="translate(417.609375 0)"/>
       <use xlink:href="#DejaVuSans-44" transform="translate(480.984375 0)"/>
       <use xlink:href="#DejaVuSans-55" transform="translate(542.265625 0)"/>
       <use xlink:href="#DejaVuSans-48" transform="translate(581.171875 0)"/>
       <use xlink:href="#DejaVuSans-47" transform="translate(642.703125 0)"/>
       <use xlink:href="#DejaVuSans-10" transform="translate(706.1875 0)"/>
       <use xlink:href="#DejaVuSans-53" transform="translate(742.265625 0)"/>
       <use xlink:href="#DejaVuSans-55" transform="translate(805.75 0)"/>
       <use xlink:href="#DejaVuSans-48" transform="translate(844.65625 0)"/>
       <use xlink:href="#DejaVuSans-13af" transform="translate(906.1875 0)"/>
       <use xlink:href="#DejaVuSans-5b" transform="translate(969.171875 0)"/>
      </g>
     </g>
    </g>
    <g id="ytick_12">
     <g id="line2d_12">
      <g>
       <use xlink:href="#m08c70a4b4a" x="183.2875" y="89.099529" style="fill: #1b2a49; stroke: #1b2a49; stroke-width: 0.8"/>
      </g>
     </g>
     <g id="text_12">
      <!-- qwen · tool-agent -->
      <g style="fill: #1b2a49" transform="translate(70.708125 93.658592) scale(0.12 -0.12)">
       <use xlink:href="#DejaVuSans-54"/>
       <use xlink:href="#DejaVuSans-5a" transform="translate(63.484375 0)"/>
       <use xlink:href="#DejaVuSans-48" transform="translate(145.265625 0)"/>
       <use xlink:href="#DejaVuSans-51" transform="translate(206.796875 0)"/>
       <use xlink:href="#DejaVuSans-3" transform="translate(270.171875 0)"/>
       <use xlink:href="#DejaVuSans-79" transform="translate(301.953125 0)"/>
       <use xlink:href="#DejaVuSans-3" transform="translate(333.734375 0)"/>
       <use xlink:href="#DejaVuSans-57" transform="translate(365.515625 0)"/>
       <use xlink:href="#DejaVuSans-52" transform="translate(404.71875 0)"/>
       <use xlink:href="#DejaVuSans-52" transform="translate(465.90625 0)"/>
       <use xlink:href="#DejaVuSans-4f" transform="translate(527.09375 0)"/>
       <use xlink:href="#DejaVuSans-10" transform="translate(554.875 0)"/>
       <use xlink:href="#DejaVuSans-44" transform="translate(590.953125 0)"/>
       <use xlink:href="#DejaVuSans-4a" transform="translate(652.234375 0)"/>
       <use xlink:href="#DejaVuSans-48" transform="translate(715.71875 0)"/>
       <use xlink:href="#DejaVuSans-51" transform="translate(777.25 0)"/>
       <use xlink:href="#DejaVuSans-57" transform="translate(840.625 0)"/>
      </g>
     </g>
    </g>
   </g>
   <g id="patch_3">
    <path d="M 183.2875 660.320407 
L 782.28 660.320407 
L 782.28 625.090925 
L 183.2875 625.090925 
z
" clip-path="url(#pa8c4211bc1)" style="fill: #2f7d55"/>
   </g>
   <g id="patch_4">
    <path d="M 183.2875 609.992576 
L 782.28 609.992576 
L 782.28 574.763095 
L 183.2875 574.763095 
z
" clip-path="url(#pa8c4211bc1)" style="fill: #2f7d55"/>
   </g>
   <g id="patch_5">
    <path d="M 183.2875 559.664745 
L 782.28 559.664745 
L 782.28 524.435264 
L 183.2875 524.435264 
z
" clip-path="url(#pa8c4211bc1)" style="fill: #2f7d55"/>
   </g>
   <g id="patch_6">
    <path d="M 183.2875 509.336915 
L 782.28 509.336915 
L 782.28 474.107433 
L 183.2875 474.107433 
z
" clip-path="url(#pa8c4211bc1)" style="fill: #d08428"/>
   </g>
   <g id="patch_7">
    <path d="M 183.2875 459.009084 
L 782.28 459.009084 
L 782.28 423.779603 
L 183.2875 423.779603 
z
" clip-path="url(#pa8c4211bc1)" style="fill: #2f7d55"/>
   </g>
   <g id="patch_8">
    <path d="M 183.2875 408.681254 
L 782.28 408.681254 
L 782.28 373.451772 
L 183.2875 373.451772 
z
" clip-path="url(#pa8c4211bc1)" style="fill: #2f7d55"/>
   </g>
   <g id="patch_9">
    <path d="M 183.2875 358.353423 
L 782.28 358.353423 
L 782.28 323.123942 
L 183.2875 323.123942 
z
" clip-path="url(#pa8c4211bc1)" style="fill: #2f7d55"/>
   </g>
   <g id="patch_10">
    <path d="M 183.2875 308.025592 
L 782.28 308.025592 
L 782.28 272.796111 
L 183.2875 272.796111 
z
" clip-path="url(#pa8c4211bc1)" style="fill: #2f7d55"/>
   </g>
   <g id="patch_11">
    <path d="M 183.2875 257.697762 
L 782.28 257.697762 
L 782.28 222.46828 
L 183.2875 222.46828 
z
" clip-path="url(#pa8c4211bc1)" style="fill: #2f7d55"/>
   </g>
   <g id="patch_12">
    <path d="M 183.2875 207.369931 
L 782.28 207.369931 
L 782.28 172.14045 
L 183.2875 172.14045 
z
" clip-path="url(#pa8c4211bc1)" style="fill: #2f7d55"/>
   </g>
   <g id="patch_13">
    <path d="M 183.2875 157.042101 
L 782.28 157.042101 
L 782.28 121.812619 
L 183.2875 121.812619 
z
" clip-path="url(#pa8c4211bc1)" style="fill: #2f7d55"/>
   </g>
   <g id="patch_14">
    <path d="M 183.2875 106.71427 
L 782.28 106.71427 
L 782.28 71.484789 
L 183.2875 71.484789 
z
" clip-path="url(#pa8c4211bc1)" style="fill: #d08428"/>
   </g>
   <g id="patch_15">
    <path d="M 183.2875 689.762187 
L 183.2875 42.043008 
" style="fill: none; stroke: #8a94a6; stroke-width: 0.8; stroke-linejoin: miter; stroke-linecap: square"/>
   </g>
   <g id="patch_16">
    <path d="M 183.2875 689.762187 
L 782.28 689.762187 
" style="fill: none; stroke: #8a94a6; stroke-width: 0.8; stroke-linejoin: miter; stroke-linecap: square"/>
   </g>
   <g id="text_13">
    <!-- all-metric win exists -->
    <g style="fill: #ffffff" transform="translate(420.019297 645.563517) scale(0.11 -0.11)">
     <defs>
      <path id="DejaVuSans-Bold-44" d="M 2106 1575 
Q 1756 1575 1579 1456 
Q 1403 1338 1403 1106 
Q 1403 894 1545 773 
Q 1688 653 1941 653 
Q 2256 653 2472 879 
Q 2688 1106 2688 1447 
L 2688 1575 
L 2106 1575 
z
M 3816 1997 
L 3816 0 
L 2688 0 
L 2688 519 
Q 2463 200 2181 54 
Q 1900 -91 1497 -91 
Q 953 -91 614 226 
Q 275 544 275 1050 
Q 275 1666 698 1953 
Q 1122 2241 2028 2241 
L 2688 2241 
L 2688 2328 
Q 2688 2594 2478 2717 
Q 2269 2841 1825 2841 
Q 1466 2841 1156 2769 
Q 847 2697 581 2553 
L 581 3406 
Q 941 3494 1303 3539 
Q 1666 3584 2028 3584 
Q 2975 3584 3395 3211 
Q 3816 2838 3816 1997 
z
" transform="scale(0.015625)"/>
      <path id="DejaVuSans-Bold-4f" d="M 538 4863 
L 1656 4863 
L 1656 0 
L 538 0 
L 538 4863 
z
" transform="scale(0.015625)"/>
      <path id="DejaVuSans-Bold-10" d="M 347 2297 
L 2309 2297 
L 2309 1388 
L 347 1388 
L 347 2297 
z
" transform="scale(0.015625)"/>
      <path id="DejaVuSans-Bold-50" d="M 3781 2919 
Q 3994 3244 4286 3414 
Q 4578 3584 4928 3584 
Q 5531 3584 5847 3212 
Q 6163 2841 6163 2131 
L 6163 0 
L 5038 0 
L 5038 1825 
Q 5041 1866 5042 1909 
Q 5044 1953 5044 2034 
Q 5044 2406 4934 2573 
Q 4825 2741 4581 2741 
Q 4263 2741 4089 2478 
Q 3916 2216 3909 1719 
L 3909 0 
L 2784 0 
L 2784 1825 
Q 2784 2406 2684 2573 
Q 2584 2741 2328 2741 
Q 2006 2741 1831 2477 
Q 1656 2213 1656 1722 
L 1656 0 
L 531 0 
L 531 3500 
L 1656 3500 
L 1656 2988 
Q 1863 3284 2130 3434 
Q 2397 3584 2719 3584 
Q 3081 3584 3359 3409 
Q 3638 3234 3781 2919 
z
" transform="scale(0.015625)"/>
      <path id="DejaVuSans-Bold-48" d="M 4031 1759 
L 4031 1441 
L 1416 1441 
Q 1456 1047 1700 850 
Q 1944 653 2381 653 
Q 2734 653 3104 758 
Q 3475 863 3866 1075 
L 3866 213 
Q 3469 63 3072 -14 
Q 2675 -91 2278 -91 
Q 1328 -91 801 392 
Q 275 875 275 1747 
Q 275 2603 792 3093 
Q 1309 3584 2216 3584 
Q 3041 3584 3536 3087 
Q 4031 2591 4031 1759 
z
M 2881 2131 
Q 2881 2450 2695 2645 
Q 2509 2841 2209 2841 
Q 1884 2841 1681 2658 
Q 1478 2475 1428 2131 
L 2881 2131 
z
" transform="scale(0.015625)"/>
      <path id="DejaVuSans-Bold-57" d="M 1759 4494 
L 1759 3500 
L 2913 3500 
L 2913 2700 
L 1759 2700 
L 1759 1216 
Q 1759 972 1856 886 
Q 1953 800 2241 800 
L 2816 800 
L 2816 0 
L 1856 0 
Q 1194 0 917 276 
Q 641 553 641 1216 
L 641 2700 
L 84 2700 
L 84 3500 
L 641 3500 
L 641 4494 
L 1759 4494 
z
" transform="scale(0.015625)"/>
      <path id="DejaVuSans-Bold-55" d="M 3138 2547 
Q 2991 2616 2845 2648 
Q 2700 2681 2553 2681 
Q 2122 2681 1889 2404 
Q 1656 2128 1656 1613 
L 1656 0 
L 538 0 
L 538 3500 
L 1656 3500 
L 1656 2925 
Q 1872 3269 2151 3426 
Q 2431 3584 2822 3584 
Q 2878 3584 2943 3579 
Q 3009 3575 3134 3559 
L 3138 2547 
z
" transform="scale(0.015625)"/>
      <path id="DejaVuSans-Bold-4c" d="M 538 3500 
L 1656 3500 
L 1656 0 
L 538 0 
L 538 3500 
z
M 538 4863 
L 1656 4863 
L 1656 3950 
L 538 3950 
L 538 4863 
z
" transform="scale(0.015625)"/>
      <path id="DejaVuSans-Bold-46" d="M 3366 3391 
L 3366 2478 
Q 3138 2634 2908 2709 
Q 2678 2784 2431 2784 
Q 1963 2784 1702 2511 
Q 1441 2238 1441 1747 
Q 1441 1256 1702 982 
Q 1963 709 2431 709 
Q 2694 709 2930 787 
Q 3166 866 3366 1019 
L 3366 103 
Q 3103 6 2833 -42 
Q 2563 -91 2291 -91 
Q 1344 -91 809 395 
Q 275 881 275 1747 
Q 275 2613 809 3098 
Q 1344 3584 2291 3584 
Q 2566 3584 2833 3536 
Q 3100 3488 3366 3391 
z
" transform="scale(0.015625)"/>
      <path id="DejaVuSans-Bold-3" transform="scale(0.015625)"/>
      <path id="DejaVuSans-Bold-5a" d="M 225 3500 
L 1313 3500 
L 1900 1088 
L 2491 3500 
L 3425 3500 
L 4013 1113 
L 4603 3500 
L 5691 3500 
L 4769 0 
L 3547 0 
L 2956 2406 
L 2369 0 
L 1147 0 
L 225 3500 
z
" transform="scale(0.015625)"/>
      <path id="DejaVuSans-Bold-51" d="M 4056 2131 
L 4056 0 
L 2931 0 
L 2931 347 
L 2931 1631 
Q 2931 2084 2911 2256 
Q 2891 2428 2841 2509 
Q 2775 2619 2662 2680 
Q 2550 2741 2406 2741 
Q 2056 2741 1856 2470 
Q 1656 2200 1656 1722 
L 1656 0 
L 538 0 
L 538 3500 
L 1656 3500 
L 1656 2988 
Q 1909 3294 2193 3439 
Q 2478 3584 2822 3584 
Q 3428 3584 3742 3212 
Q 4056 2841 4056 2131 
z
" transform="scale(0.015625)"/>
      <path id="DejaVuSans-Bold-5b" d="M 1422 1791 
L 159 3500 
L 1344 3500 
L 2059 2463 
L 2784 3500 
L 3969 3500 
L 2706 1797 
L 4031 0 
L 2847 0 
L 2059 1106 
L 1281 0 
L 97 0 
L 1422 1791 
z
" transform="scale(0.015625)"/>
      <path id="DejaVuSans-Bold-56" d="M 3272 3391 
L 3272 2541 
Q 2913 2691 2578 2766 
Q 2244 2841 1947 2841 
Q 1628 2841 1473 2761 
Q 1319 2681 1319 2516 
Q 1319 2381 1436 2309 
Q 1553 2238 1856 2203 
L 2053 2175 
Q 2913 2066 3209 1816 
Q 3506 1566 3506 1031 
Q 3506 472 3093 190 
Q 2681 -91 1863 -91 
Q 1516 -91 1145 -36 
Q 775 19 384 128 
L 384 978 
Q 719 816 1070 734 
Q 1422 653 1784 653 
Q 2113 653 2278 743 
Q 2444 834 2444 1013 
Q 2444 1163 2330 1236 
Q 2216 1309 1875 1350 
L 1678 1375 
Q 931 1469 631 1722 
Q 331 1975 331 2491 
Q 331 3047 712 3315 
Q 1094 3584 1881 3584 
Q 2191 3584 2531 3537 
Q 2872 3491 3272 3391 
z
" transform="scale(0.015625)"/>
     </defs>
     <use xlink:href="#DejaVuSans-Bold-44"/>
     <use xlink:href="#DejaVuSans-Bold-4f" transform="translate(67.484375 0)"/>
     <use xlink:href="#DejaVuSans-Bold-4f" transform="translate(101.765625 0)"/>
     <use xlink:href="#DejaVuSans-Bold-10" transform="translate(136.046875 0)"/>
     <use xlink:href="#DejaVuSans-Bold-50" transform="translate(177.546875 0)"/>
     <use xlink:href="#DejaVuSans-Bold-48" transform="translate(281.75 0)"/>
     <use xlink:href="#DejaVuSans-Bold-57" transform="translate(349.578125 0)"/>
     <use xlink:href="#DejaVuSans-Bold-55" transform="translate(397.375 0)"/>
     <use xlink:href="#DejaVuSans-Bold-4c" transform="translate(446.6875 0)"/>
     <use xlink:href="#DejaVuSans-Bold-46" transform="translate(480.96875 0)"/>
     <use xlink:href="#DejaVuSans-Bold-3" transform="translate(540.25 0)"/>
     <use xlink:href="#DejaVuSans-Bold-5a" transform="translate(575.0625 0)"/>
     <use xlink:href="#DejaVuSans-Bold-4c" transform="translate(667.453125 0)"/>
     <use xlink:href="#DejaVuSans-Bold-51" transform="translate(701.734375 0)"/>
     <use xlink:href="#DejaVuSans-Bold-3" transform="translate(772.921875 0)"/>
     <use xlink:href="#DejaVuSans-Bold-48" transform="translate(807.734375 0)"/>
     <use xlink:href="#DejaVuSans-Bold-5b" transform="translate(875.5625 0)"/>
     <use xlink:href="#DejaVuSans-Bold-4c" transform="translate(940.0625 0)"/>
     <use xlink:href="#DejaVuSans-Bold-56" transform="translate(974.34375 0)"/>
     <use xlink:href="#DejaVuSans-Bold-57" transform="translate(1033.859375 0)"/>
     <use xlink:href="#DejaVuSans-Bold-56" transform="translate(1081.65625 0)"/>
    </g>
   </g>
   <g id="text_14">
    <!-- all-metric win exists -->
    <g style="fill: #ffffff" transform="translate(420.019297 595.235687) scale(0.11 -0.11)">
     <use xlink:href="#DejaVuSans-Bold-44"/>
     <use xlink:href="#DejaVuSans-Bold-4f" transform="translate(67.484375 0)"/>
     <use xlink:href="#DejaVuSans-Bold-4f" transform="translate(101.765625 0)"/>
     <use xlink:href="#DejaVuSans-Bold-10" transform="translate(136.046875 0)"/>
     <use xlink:href="#DejaVuSans-Bold-50" transform="translate(177.546875 0)"/>
     <use xlink:href="#DejaVuSans-Bold-48" transform="translate(281.75 0)"/>
     <use xlink:href="#DejaVuSans-Bold-57" transform="translate(349.578125 0)"/>
     <use xlink:href="#DejaVuSans-Bold-55" transform="translate(397.375 0)"/>
     <use xlink:href="#DejaVuSans-Bold-4c" transform="translate(446.6875 0)"/>
     <use xlink:href="#DejaVuSans-Bold-46" transform="translate(480.96875 0)"/>
     <use xlink:href="#DejaVuSans-Bold-3" transform="translate(540.25 0)"/>
     <use xlink:href="#DejaVuSans-Bold-5a" transform="translate(575.0625 0)"/>
     <use xlink:href="#DejaVuSans-Bold-4c" transform="translate(667.453125 0)"/>
     <use xlink:href="#DejaVuSans-Bold-51" transform="translate(701.734375 0)"/>
     <use xlink:href="#DejaVuSans-Bold-3" transform="translate(772.921875 0)"/>
     <use xlink:href="#DejaVuSans-Bold-48" transform="translate(807.734375 0)"/>
     <use xlink:href="#DejaVuSans-Bold-5b" transform="translate(875.5625 0)"/>
     <use xlink:href="#DejaVuSans-Bold-4c" transform="translate(940.0625 0)"/>
     <use xlink:href="#DejaVuSans-Bold-56" transform="translate(974.34375 0)"/>
     <use xlink:href="#DejaVuSans-Bold-57" transform="translate(1033.859375 0)"/>
     <use xlink:href="#DejaVuSans-Bold-56" transform="translate(1081.65625 0)"/>
    </g>
   </g>
   <g id="text_15">
    <!-- all-metric win exists -->
    <g style="fill: #ffffff" transform="translate(420.019297 544.907856) scale(0.11 -0.11)">
     <use xlink:href="#DejaVuSans-Bold-44"/>
     <use xlink:href="#DejaVuSans-Bold-4f" transform="translate(67.484375 0)"/>
     <use xlink:href="#DejaVuSans-Bold-4f" transform="translate(101.765625 0)"/>
     <use xlink:href="#DejaVuSans-Bold-10" transform="translate(136.046875 0)"/>
     <use xlink:href="#DejaVuSans-Bold-50" transform="translate(177.546875 0)"/>
     <use xlink:href="#DejaVuSans-Bold-48" transform="translate(281.75 0)"/>
     <use xlink:href="#DejaVuSans-Bold-57" transform="translate(349.578125 0)"/>
     <use xlink:href="#DejaVuSans-Bold-55" transform="translate(397.375 0)"/>
     <use xlink:href="#DejaVuSans-Bold-4c" transform="translate(446.6875 0)"/>
     <use xlink:href="#DejaVuSans-Bold-46" transform="translate(480.96875 0)"/>
     <use xlink:href="#DejaVuSans-Bold-3" transform="translate(540.25 0)"/>
     <use xlink:href="#DejaVuSans-Bold-5a" transform="translate(575.0625 0)"/>
     <use xlink:href="#DejaVuSans-Bold-4c" transform="translate(667.453125 0)"/>
     <use xlink:href="#DejaVuSans-Bold-51" transform="translate(701.734375 0)"/>
     <use xlink:href="#DejaVuSans-Bold-3" transform="translate(772.921875 0)"/>
     <use xlink:href="#DejaVuSans-Bold-48" transform="translate(807.734375 0)"/>
     <use xlink:href="#DejaVuSans-Bold-5b" transform="translate(875.5625 0)"/>
     <use xlink:href="#DejaVuSans-Bold-4c" transform="translate(940.0625 0)"/>
     <use xlink:href="#DejaVuSans-Bold-56" transform="translate(974.34375 0)"/>
     <use xlink:href="#DejaVuSans-Bold-57" transform="translate(1033.859375 0)"/>
     <use xlink:href="#DejaVuSans-Bold-56" transform="translate(1081.65625 0)"/>
    </g>
   </g>
   <g id="text_16">
    <!-- only trade-offs -->
    <g style="fill: #ffffff" transform="translate(437.194766 494.580026) scale(0.11 -0.11)">
     <defs>
      <path id="DejaVuSans-Bold-52" d="M 2203 2784 
Q 1831 2784 1636 2517 
Q 1441 2250 1441 1747 
Q 1441 1244 1636 976 
Q 1831 709 2203 709 
Q 2569 709 2762 976 
Q 2956 1244 2956 1747 
Q 2956 2250 2762 2517 
Q 2569 2784 2203 2784 
z
M 2203 3584 
Q 3106 3584 3614 3096 
Q 4122 2609 4122 1747 
Q 4122 884 3614 396 
Q 3106 -91 2203 -91 
Q 1297 -91 786 396 
Q 275 884 275 1747 
Q 275 2609 786 3096 
Q 1297 3584 2203 3584 
z
" transform="scale(0.015625)"/>
      <path id="DejaVuSans-Bold-5c" d="M 78 3500 
L 1197 3500 
L 2138 1125 
L 2938 3500 
L 4056 3500 
L 2584 -331 
Q 2363 -916 2067 -1148 
Q 1772 -1381 1288 -1381 
L 641 -1381 
L 641 -647 
L 991 -647 
Q 1275 -647 1404 -556 
Q 1534 -466 1606 -231 
L 1638 -134 
L 78 3500 
z
" transform="scale(0.015625)"/>
      <path id="DejaVuSans-Bold-47" d="M 2919 2988 
L 2919 4863 
L 4044 4863 
L 4044 0 
L 2919 0 
L 2919 506 
Q 2688 197 2409 53 
Q 2131 -91 1766 -91 
Q 1119 -91 703 423 
Q 288 938 288 1747 
Q 288 2556 703 3070 
Q 1119 3584 1766 3584 
Q 2128 3584 2408 3439 
Q 2688 3294 2919 2988 
z
M 2181 722 
Q 2541 722 2730 984 
Q 2919 1247 2919 1747 
Q 2919 2247 2730 2509 
Q 2541 2772 2181 2772 
Q 1825 2772 1636 2509 
Q 1447 2247 1447 1747 
Q 1447 1247 1636 984 
Q 1825 722 2181 722 
z
" transform="scale(0.015625)"/>
      <path id="DejaVuSans-Bold-13aa" d="M 2841 4863 
L 2841 4128 
L 2222 4128 
Q 1984 4128 1891 4044 
Q 1797 3956 1797 3744 
L 1797 3500 
L 3078 3500 
L 3078 3744 
Q 3078 4316 3397 4588 
Q 3716 4863 4384 4863 
L 5241 4863 
L 5241 4128 
L 4622 4128 
Q 4384 4128 4291 4044 
Q 4197 3956 4197 3744 
L 4197 3500 
L 5153 3500 
L 5153 2700 
L 4197 2700 
L 4197 0 
L 3078 0 
L 3078 2700 
L 1797 2700 
L 1797 0 
L 678 0 
L 678 2700 
L 122 2700 
L 122 3500 
L 678 3500 
L 678 3744 
Q 678 4316 997 4588 
Q 1316 4863 1984 4863 
L 2841 4863 
z
" transform="scale(0.015625)"/>
     </defs>
     <use xlink:href="#DejaVuSans-Bold-52"/>
     <use xlink:href="#DejaVuSans-Bold-51" transform="translate(68.703125 0)"/>
     <use xlink:href="#DejaVuSans-Bold-4f" transform="translate(139.890625 0)"/>
     <use xlink:href="#DejaVuSans-Bold-5c" transform="translate(174.171875 0)"/>
     <use xlink:href="#DejaVuSans-Bold-3" transform="translate(239.359375 0)"/>
     <use xlink:href="#DejaVuSans-Bold-57" transform="translate(274.171875 0)"/>
     <use xlink:href="#DejaVuSans-Bold-55" transform="translate(321.96875 0)"/>
     <use xlink:href="#DejaVuSans-Bold-44" transform="translate(371.28125 0)"/>
     <use xlink:href="#DejaVuSans-Bold-47" transform="translate(438.765625 0)"/>
     <use xlink:href="#DejaVuSans-Bold-48" transform="translate(510.34375 0)"/>
     <use xlink:href="#DejaVuSans-Bold-10" transform="translate(578.171875 0)"/>
     <use xlink:href="#DejaVuSans-Bold-52" transform="translate(619.671875 0)"/>
     <use xlink:href="#DejaVuSans-Bold-13aa" transform="translate(688.375 0)"/>
     <use xlink:href="#DejaVuSans-Bold-56" transform="translate(769.375 0)"/>
    </g>
   </g>
   <g id="text_17">
    <!-- all-metric win exists -->
    <g style="fill: #ffffff" transform="translate(420.019297 444.252195) scale(0.11 -0.11)">
     <use xlink:href="#DejaVuSans-Bold-44"/>
     <use xlink:href="#DejaVuSans-Bold-4f" transform="translate(67.484375 0)"/>
     <use xlink:href="#DejaVuSans-Bold-4f" transform="translate(101.765625 0)"/>
     <use xlink:href="#DejaVuSans-Bold-10" transform="translate(136.046875 0)"/>
     <use xlink:href="#DejaVuSans-Bold-50" transform="translate(177.546875 0)"/>
     <use xlink:href="#DejaVuSans-Bold-48" transform="translate(281.75 0)"/>
     <use xlink:href="#DejaVuSans-Bold-57" transform="translate(349.578125 0)"/>
     <use xlink:href="#DejaVuSans-Bold-55" transform="translate(397.375 0)"/>
     <use xlink:href="#DejaVuSans-Bold-4c" transform="translate(446.6875 0)"/>
     <use xlink:href="#DejaVuSans-Bold-46" transform="translate(480.96875 0)"/>
     <use xlink:href="#DejaVuSans-Bold-3" transform="translate(540.25 0)"/>
     <use xlink:href="#DejaVuSans-Bold-5a" transform="translate(575.0625 0)"/>
     <use xlink:href="#DejaVuSans-Bold-4c" transform="translate(667.453125 0)"/>
     <use xlink:href="#DejaVuSans-Bold-51" transform="translate(701.734375 0)"/>
     <use xlink:href="#DejaVuSans-Bold-3" transform="translate(772.921875 0)"/>
     <use xlink:href="#DejaVuSans-Bold-48" transform="translate(807.734375 0)"/>
     <use xlink:href="#DejaVuSans-Bold-5b" transform="translate(875.5625 0)"/>
     <use xlink:href="#DejaVuSans-Bold-4c" transform="translate(940.0625 0)"/>
     <use xlink:href="#DejaVuSans-Bold-56" transform="translate(974.34375 0)"/>
     <use xlink:href="#DejaVuSans-Bold-57" transform="translate(1033.859375 0)"/>
     <use xlink:href="#DejaVuSans-Bold-56" transform="translate(1081.65625 0)"/>
    </g>
   </g>
   <g id="text_18">
    <!-- all-metric win exists -->
    <g style="fill: #ffffff" transform="translate(420.019297 393.924365) scale(0.11 -0.11)">
     <use xlink:href="#DejaVuSans-Bold-44"/>
     <use xlink:href="#DejaVuSans-Bold-4f" transform="translate(67.484375 0)"/>
     <use xlink:href="#DejaVuSans-Bold-4f" transform="translate(101.765625 0)"/>
     <use xlink:href="#DejaVuSans-Bold-10" transform="translate(136.046875 0)"/>
     <use xlink:href="#DejaVuSans-Bold-50" transform="translate(177.546875 0)"/>
     <use xlink:href="#DejaVuSans-Bold-48" transform="translate(281.75 0)"/>
     <use xlink:href="#DejaVuSans-Bold-57" transform="translate(349.578125 0)"/>
     <use xlink:href="#DejaVuSans-Bold-55" transform="translate(397.375 0)"/>
     <use xlink:href="#DejaVuSans-Bold-4c" transform="translate(446.6875 0)"/>
     <use xlink:href="#DejaVuSans-Bold-46" transform="translate(480.96875 0)"/>
     <use xlink:href="#DejaVuSans-Bold-3" transform="translate(540.25 0)"/>
     <use xlink:href="#DejaVuSans-Bold-5a" transform="translate(575.0625 0)"/>
     <use xlink:href="#DejaVuSans-Bold-4c" transform="translate(667.453125 0)"/>
     <use xlink:href="#DejaVuSans-Bold-51" transform="translate(701.734375 0)"/>
     <use xlink:href="#DejaVuSans-Bold-3" transform="translate(772.921875 0)"/>
     <use xlink:href="#DejaVuSans-Bold-48" transform="translate(807.734375 0)"/>
     <use xlink:href="#DejaVuSans-Bold-5b" transform="translate(875.5625 0)"/>
     <use xlink:href="#DejaVuSans-Bold-4c" transform="translate(940.0625 0)"/>
     <use xlink:href="#DejaVuSans-Bold-56" transform="translate(974.34375 0)"/>
     <use xlink:href="#DejaVuSans-Bold-57" transform="translate(1033.859375 0)"/>
     <use xlink:href="#DejaVuSans-Bold-56" transform="translate(1081.65625 0)"/>
    </g>
   </g>
   <g id="text_19">
    <!-- all-metric win exists -->
    <g style="fill: #ffffff" transform="translate(420.019297 343.596534) scale(0.11 -0.11)">
     <use xlink:href="#DejaVuSans-Bold-44"/>
     <use xlink:href="#DejaVuSans-Bold-4f" transform="translate(67.484375 0)"/>
     <use xlink:href="#DejaVuSans-Bold-4f" transform="translate(101.765625 0)"/>
     <use xlink:href="#DejaVuSans-Bold-10" transform="translate(136.046875 0)"/>
     <use xlink:href="#DejaVuSans-Bold-50" transform="translate(177.546875 0)"/>
     <use xlink:href="#DejaVuSans-Bold-48" transform="translate(281.75 0)"/>
     <use xlink:href="#DejaVuSans-Bold-57" transform="translate(349.578125 0)"/>
     <use xlink:href="#DejaVuSans-Bold-55" transform="translate(397.375 0)"/>
     <use xlink:href="#DejaVuSans-Bold-4c" transform="translate(446.6875 0)"/>
     <use xlink:href="#DejaVuSans-Bold-46" transform="translate(480.96875 0)"/>
     <use xlink:href="#DejaVuSans-Bold-3" transform="translate(540.25 0)"/>
     <use xlink:href="#DejaVuSans-Bold-5a" transform="translate(575.0625 0)"/>
     <use xlink:href="#DejaVuSans-Bold-4c" transform="translate(667.453125 0)"/>
     <use xlink:href="#DejaVuSans-Bold-51" transform="translate(701.734375 0)"/>
     <use xlink:href="#DejaVuSans-Bold-3" transform="translate(772.921875 0)"/>
     <use xlink:href="#DejaVuSans-Bold-48" transform="translate(807.734375 0)"/>
     <use xlink:href="#DejaVuSans-Bold-5b" transform="translate(875.5625 0)"/>
     <use xlink:href="#DejaVuSans-Bold-4c" transform="translate(940.0625 0)"/>
     <use xlink:href="#DejaVuSans-Bold-56" transform="translate(974.34375 0)"/>
     <use xlink:href="#DejaVuSans-Bold-57" transform="translate(1033.859375 0)"/>
     <use xlink:href="#DejaVuSans-Bold-56" transform="translate(1081.65625 0)"/>
    </g>
   </g>
   <g id="text_20">
    <!-- all-metric win exists -->
    <g style="fill: #ffffff" transform="translate(420.019297 293.268703) scale(0.11 -0.11)">
     <use xlink:href="#DejaVuSans-Bold-44"/>
     <use xlink:href="#DejaVuSans-Bold-4f" transform="translate(67.484375 0)"/>
     <use xlink:href="#DejaVuSans-Bold-4f" transform="translate(101.765625 0)"/>
     <use xlink:href="#DejaVuSans-Bold-10" transform="translate(136.046875 0)"/>
     <use xlink:href="#DejaVuSans-Bold-50" transform="translate(177.546875 0)"/>
     <use xlink:href="#DejaVuSans-Bold-48" transform="translate(281.75 0)"/>
     <use xlink:href="#DejaVuSans-Bold-57" transform="translate(349.578125 0)"/>
     <use xlink:href="#DejaVuSans-Bold-55" transform="translate(397.375 0)"/>
     <use xlink:href="#DejaVuSans-Bold-4c" transform="translate(446.6875 0)"/>
     <use xlink:href="#DejaVuSans-Bold-46" transform="translate(480.96875 0)"/>
     <use xlink:href="#DejaVuSans-Bold-3" transform="translate(540.25 0)"/>
     <use xlink:href="#DejaVuSans-Bold-5a" transform="translate(575.0625 0)"/>
     <use xlink:href="#DejaVuSans-Bold-4c" transform="translate(667.453125 0)"/>
     <use xlink:href="#DejaVuSans-Bold-51" transform="translate(701.734375 0)"/>
     <use xlink:href="#DejaVuSans-Bold-3" transform="translate(772.921875 0)"/>
     <use xlink:href="#DejaVuSans-Bold-48" transform="translate(807.734375 0)"/>
     <use xlink:href="#DejaVuSans-Bold-5b" transform="translate(875.5625 0)"/>
     <use xlink:href="#DejaVuSans-Bold-4c" transform="translate(940.0625 0)"/>
     <use xlink:href="#DejaVuSans-Bold-56" transform="translate(974.34375 0)"/>
     <use xlink:href="#DejaVuSans-Bold-57" transform="translate(1033.859375 0)"/>
     <use xlink:href="#DejaVuSans-Bold-56" transform="translate(1081.65625 0)"/>
    </g>
   </g>
   <g id="text_21">
    <!-- all-metric win exists -->
    <g style="fill: #ffffff" transform="translate(420.019297 242.940873) scale(0.11 -0.11)">
     <use xlink:href="#DejaVuSans-Bold-44"/>
     <use xlink:href="#DejaVuSans-Bold-4f" transform="translate(67.484375 0)"/>
     <use xlink:href="#DejaVuSans-Bold-4f" transform="translate(101.765625 0)"/>
     <use xlink:href="#DejaVuSans-Bold-10" transform="translate(136.046875 0)"/>
     <use xlink:href="#DejaVuSans-Bold-50" transform="translate(177.546875 0)"/>
     <use xlink:href="#DejaVuSans-Bold-48" transform="translate(281.75 0)"/>
     <use xlink:href="#DejaVuSans-Bold-57" transform="translate(349.578125 0)"/>
     <use xlink:href="#DejaVuSans-Bold-55" transform="translate(397.375 0)"/>
     <use xlink:href="#DejaVuSans-Bold-4c" transform="translate(446.6875 0)"/>
     <use xlink:href="#DejaVuSans-Bold-46" transform="translate(480.96875 0)"/>
     <use xlink:href="#DejaVuSans-Bold-3" transform="translate(540.25 0)"/>
     <use xlink:href="#DejaVuSans-Bold-5a" transform="translate(575.0625 0)"/>
     <use xlink:href="#DejaVuSans-Bold-4c" transform="translate(667.453125 0)"/>
     <use xlink:href="#DejaVuSans-Bold-51" transform="translate(701.734375 0)"/>
     <use xlink:href="#DejaVuSans-Bold-3" transform="translate(772.921875 0)"/>
     <use xlink:href="#DejaVuSans-Bold-48" transform="translate(807.734375 0)"/>
     <use xlink:href="#DejaVuSans-Bold-5b" transform="translate(875.5625 0)"/>
     <use xlink:href="#DejaVuSans-Bold-4c" transform="translate(940.0625 0)"/>
     <use xlink:href="#DejaVuSans-Bold-56" transform="translate(974.34375 0)"/>
     <use xlink:href="#DejaVuSans-Bold-57" transform="translate(1033.859375 0)"/>
     <use xlink:href="#DejaVuSans-Bold-56" transform="translate(1081.65625 0)"/>
    </g>
   </g>
   <g id="text_22">
    <!-- all-metric win exists -->
    <g style="fill: #ffffff" transform="translate(420.019297 192.613042) scale(0.11 -0.11)">
     <use xlink:href="#DejaVuSans-Bold-44"/>
     <use xlink:href="#DejaVuSans-Bold-4f" transform="translate(67.484375 0)"/>
     <use xlink:href="#DejaVuSans-Bold-4f" transform="translate(101.765625 0)"/>
     <use xlink:href="#DejaVuSans-Bold-10" transform="translate(136.046875 0)"/>
     <use xlink:href="#DejaVuSans-Bold-50" transform="translate(177.546875 0)"/>
     <use xlink:href="#DejaVuSans-Bold-48" transform="translate(281.75 0)"/>
     <use xlink:href="#DejaVuSans-Bold-57" transform="translate(349.578125 0)"/>
     <use xlink:href="#DejaVuSans-Bold-55" transform="translate(397.375 0)"/>
     <use xlink:href="#DejaVuSans-Bold-4c" transform="translate(446.6875 0)"/>
     <use xlink:href="#DejaVuSans-Bold-46" transform="translate(480.96875 0)"/>
     <use xlink:href="#DejaVuSans-Bold-3" transform="translate(540.25 0)"/>
     <use xlink:href="#DejaVuSans-Bold-5a" transform="translate(575.0625 0)"/>
     <use xlink:href="#DejaVuSans-Bold-4c" transform="translate(667.453125 0)"/>
     <use xlink:href="#DejaVuSans-Bold-51" transform="translate(701.734375 0)"/>
     <use xlink:href="#DejaVuSans-Bold-3" transform="translate(772.921875 0)"/>
     <use xlink:href="#DejaVuSans-Bold-48" transform="translate(807.734375 0)"/>
     <use xlink:href="#DejaVuSans-Bold-5b" transform="translate(875.5625 0)"/>
     <use xlink:href="#DejaVuSans-Bold-4c" transform="translate(940.0625 0)"/>
     <use xlink:href="#DejaVuSans-Bold-56" transform="translate(974.34375 0)"/>
     <use xlink:href="#DejaVuSans-Bold-57" transform="translate(1033.859375 0)"/>
     <use xlink:href="#DejaVuSans-Bold-56" transform="translate(1081.65625 0)"/>
    </g>
   </g>
   <g id="text_23">
    <!-- all-metric win exists -->
    <g style="fill: #ffffff" transform="translate(420.019297 142.285212) scale(0.11 -0.11)">
     <use xlink:href="#DejaVuSans-Bold-44"/>
     <use xlink:href="#DejaVuSans-Bold-4f" transform="translate(67.484375 0)"/>
     <use xlink:href="#DejaVuSans-Bold-4f" transform="translate(101.765625 0)"/>
     <use xlink:href="#DejaVuSans-Bold-10" transform="translate(136.046875 0)"/>
     <use xlink:href="#DejaVuSans-Bold-50" transform="translate(177.546875 0)"/>
     <use xlink:href="#DejaVuSans-Bold-48" transform="translate(281.75 0)"/>
     <use xlink:href="#DejaVuSans-Bold-57" transform="translate(349.578125 0)"/>
     <use xlink:href="#DejaVuSans-Bold-55" transform="translate(397.375 0)"/>
     <use xlink:href="#DejaVuSans-Bold-4c" transform="translate(446.6875 0)"/>
     <use xlink:href="#DejaVuSans-Bold-46" transform="translate(480.96875 0)"/>
     <use xlink:href="#DejaVuSans-Bold-3" transform="translate(540.25 0)"/>
     <use xlink:href="#DejaVuSans-Bold-5a" transform="translate(575.0625 0)"/>
     <use xlink:href="#DejaVuSans-Bold-4c" transform="translate(667.453125 0)"/>
     <use xlink:href="#DejaVuSans-Bold-51" transform="translate(701.734375 0)"/>
     <use xlink:href="#DejaVuSans-Bold-3" transform="translate(772.921875 0)"/>
     <use xlink:href="#DejaVuSans-Bold-48" transform="translate(807.734375 0)"/>
     <use xlink:href="#DejaVuSans-Bold-5b" transform="translate(875.5625 0)"/>
     <use xlink:href="#DejaVuSans-Bold-4c" transform="translate(940.0625 0)"/>
     <use xlink:href="#DejaVuSans-Bold-56" transform="translate(974.34375 0)"/>
     <use xlink:href="#DejaVuSans-Bold-57" transform="translate(1033.859375 0)"/>
     <use xlink:href="#DejaVuSans-Bold-56" transform="translate(1081.65625 0)"/>
    </g>
   </g>
   <g id="text_24">
    <!-- only trade-offs -->
    <g style="fill: #ffffff" transform="translate(437.194766 91.957381) scale(0.11 -0.11)">
     <use xlink:href="#DejaVuSans-Bold-52"/>
     <use xlink:href="#DejaVuSans-Bold-51" transform="translate(68.703125 0)"/>
     <use xlink:href="#DejaVuSans-Bold-4f" transform="translate(139.890625 0)"/>
     <use xlink:href="#DejaVuSans-Bold-5c" transform="translate(174.171875 0)"/>
     <use xlink:href="#DejaVuSans-Bold-3" transform="translate(239.359375 0)"/>
     <use xlink:href="#DejaVuSans-Bold-57" transform="translate(274.171875 0)"/>
     <use xlink:href="#DejaVuSans-Bold-55" transform="translate(321.96875 0)"/>
     <use xlink:href="#DejaVuSans-Bold-44" transform="translate(371.28125 0)"/>
     <use xlink:href="#DejaVuSans-Bold-47" transform="translate(438.765625 0)"/>
     <use xlink:href="#DejaVuSans-Bold-48" transform="translate(510.34375 0)"/>
     <use xlink:href="#DejaVuSans-Bold-10" transform="translate(578.171875 0)"/>
     <use xlink:href="#DejaVuSans-Bold-52" transform="translate(619.671875 0)"/>
     <use xlink:href="#DejaVuSans-Bold-13aa" transform="translate(688.375 0)"/>
     <use xlink:href="#DejaVuSans-Bold-56" transform="translate(769.375 0)"/>
    </g>
   </g>
   <g id="text_25">
    <!-- Is there a configuration that improves without regressing? -->
    <g style="fill: #1b2a49" transform="translate(250.744687 19.23918) scale(0.14 -0.14)">
     <defs>
      <path id="DejaVuSans-Bold-2c" d="M 588 4666 
L 1791 4666 
L 1791 0 
L 588 0 
L 588 4666 
z
" transform="scale(0.015625)"/>
      <path id="DejaVuSans-Bold-4b" d="M 4056 2131 
L 4056 0 
L 2931 0 
L 2931 347 
L 2931 1625 
Q 2931 2084 2911 2256 
Q 2891 2428 2841 2509 
Q 2775 2619 2662 2680 
Q 2550 2741 2406 2741 
Q 2056 2741 1856 2470 
Q 1656 2200 1656 1722 
L 1656 0 
L 538 0 
L 538 4863 
L 1656 4863 
L 1656 2988 
Q 1909 3294 2193 3439 
Q 2478 3584 2822 3584 
Q 3428 3584 3742 3212 
Q 4056 2841 4056 2131 
z
" transform="scale(0.015625)"/>
      <path id="DejaVuSans-Bold-13ab" d="M 3078 4863 
L 4206 4863 
L 4206 3950 
L 3078 3950 
L 3078 4863 
z
M 2847 4863 
L 2847 4128 
L 2228 4128 
Q 1994 4128 1903 4042 
Q 1813 3956 1813 3744 
L 1813 3500 
L 4206 3500 
L 4206 0 
L 3078 0 
L 3078 2700 
L 1813 2700 
L 1813 0 
L 684 0 
L 684 2700 
L 134 2700 
L 134 3500 
L 684 3500 
L 684 3744 
Q 684 4316 1003 4589 
Q 1322 4863 1991 4863 
L 2847 4863 
z
" transform="scale(0.015625)"/>
      <path id="DejaVuSans-Bold-4a" d="M 2919 594 
Q 2688 288 2409 144 
Q 2131 0 1766 0 
Q 1125 0 706 504 
Q 288 1009 288 1791 
Q 288 2575 706 3076 
Q 1125 3578 1766 3578 
Q 2131 3578 2409 3434 
Q 2688 3291 2919 2981 
L 2919 3500 
L 4044 3500 
L 4044 353 
Q 4044 -491 3511 -936 
Q 2978 -1381 1966 -1381 
Q 1638 -1381 1331 -1331 
Q 1025 -1281 716 -1178 
L 716 -306 
Q 1009 -475 1290 -558 
Q 1572 -641 1856 -641 
Q 2406 -641 2662 -400 
Q 2919 -159 2919 353 
L 2919 594 
z
M 2181 2772 
Q 1834 2772 1640 2515 
Q 1447 2259 1447 1791 
Q 1447 1309 1634 1061 
Q 1822 813 2181 813 
Q 2531 813 2725 1069 
Q 2919 1325 2919 1791 
Q 2919 2259 2725 2515 
Q 2531 2772 2181 2772 
z
" transform="scale(0.015625)"/>
      <path id="DejaVuSans-Bold-58" d="M 500 1363 
L 500 3500 
L 1625 3500 
L 1625 3150 
Q 1625 2866 1622 2436 
Q 1619 2006 1619 1863 
Q 1619 1441 1641 1255 
Q 1663 1069 1716 984 
Q 1784 875 1895 815 
Q 2006 756 2150 756 
Q 2500 756 2700 1025 
Q 2900 1294 2900 1772 
L 2900 3500 
L 4019 3500 
L 4019 0 
L 2900 0 
L 2900 506 
Q 2647 200 2364 54 
Q 2081 -91 1741 -91 
Q 1134 -91 817 281 
Q 500 653 500 1363 
z
" transform="scale(0.015625)"/>
      <path id="DejaVuSans-Bold-53" d="M 1656 506 
L 1656 -1331 
L 538 -1331 
L 538 3500 
L 1656 3500 
L 1656 2988 
Q 1888 3294 2169 3439 
Q 2450 3584 2816 3584 
Q 3463 3584 3878 3070 
Q 4294 2556 4294 1747 
Q 4294 938 3878 423 
Q 3463 -91 2816 -91 
Q 2450 -91 2169 54 
Q 1888 200 1656 506 
z
M 2400 2772 
Q 2041 2772 1848 2508 
Q 1656 2244 1656 1747 
Q 1656 1250 1848 986 
Q 2041 722 2400 722 
Q 2759 722 2948 984 
Q 3138 1247 3138 1747 
Q 3138 2247 2948 2509 
Q 2759 2772 2400 2772 
z
" transform="scale(0.015625)"/>
      <path id="DejaVuSans-Bold-59" d="M 97 3500 
L 1216 3500 
L 2088 1081 
L 2956 3500 
L 4078 3500 
L 2700 0 
L 1472 0 
L 97 3500 
z
" transform="scale(0.015625)"/>
      <path id="DejaVuSans-Bold-22" d="M 2216 1575 
L 1088 1575 
L 1088 1728 
Q 1088 1984 1191 2182 
Q 1294 2381 1625 2688 
L 1825 2869 
Q 2003 3031 2086 3175 
Q 2169 3319 2169 3463 
Q 2169 3681 2019 3804 
Q 1869 3928 1600 3928 
Q 1347 3928 1053 3823 
Q 759 3719 441 3513 
L 441 4494 
Q 819 4625 1131 4687 
Q 1444 4750 1734 4750 
Q 2497 4750 2897 4439 
Q 3297 4128 3297 3531 
Q 3297 3225 3175 2983 
Q 3053 2741 2759 2463 
L 2559 2284 
Q 2347 2091 2281 1973 
Q 2216 1856 2216 1716 
L 2216 1575 
z
M 1088 1113 
L 2216 1113 
L 2216 0 
L 1088 0 
L 1088 1113 
z
" transform="scale(0.015625)"/>
     </defs>
     <use xlink:href="#DejaVuSans-Bold-2c"/>
     <use xlink:href="#DejaVuSans-Bold-56" transform="translate(37.203125 0)"/>
     <use xlink:href="#DejaVuSans-Bold-3" transform="translate(96.71875 0)"/>
     <use xlink:href="#DejaVuSans-Bold-57" transform="translate(131.53125 0)"/>
     <use xlink:href="#DejaVuSans-Bold-4b" transform="translate(179.328125 0)"/>
     <use xlink:href="#DejaVuSans-Bold-48" transform="translate(250.515625 0)"/>
     <use xlink:href="#DejaVuSans-Bold-55" transform="translate(318.34375 0)"/>
     <use xlink:href="#DejaVuSans-Bold-48" transform="translate(367.65625 0)"/>
     <use xlink:href="#DejaVuSans-Bold-3" transform="translate(435.484375 0)"/>
     <use xlink:href="#DejaVuSans-Bold-44" transform="translate(470.296875 0)"/>
     <use xlink:href="#DejaVuSans-Bold-3" transform="translate(537.78125 0)"/>
     <use xlink:href="#DejaVuSans-Bold-46" transform="translate(572.59375 0)"/>
     <use xlink:href="#DejaVuSans-Bold-52" transform="translate(631.875 0)"/>
     <use xlink:href="#DejaVuSans-Bold-51" transform="translate(700.578125 0)"/>
     <use xlink:href="#DejaVuSans-Bold-13ab" transform="translate(771.765625 0)"/>
     <use xlink:href="#DejaVuSans-Bold-4a" transform="translate(845.890625 0)"/>
     <use xlink:href="#DejaVuSans-Bold-58" transform="translate(917.46875 0)"/>
     <use xlink:href="#DejaVuSans-Bold-55" transform="translate(988.65625 0)"/>
     <use xlink:href="#DejaVuSans-Bold-44" transform="translate(1037.96875 0)"/>
     <use xlink:href="#DejaVuSans-Bold-57" transform="translate(1105.453125 0)"/>
     <use xlink:href="#DejaVuSans-Bold-4c" transform="translate(1153.25 0)"/>
     <use xlink:href="#DejaVuSans-Bold-52" transform="translate(1187.53125 0)"/>
     <use xlink:href="#DejaVuSans-Bold-51" transform="translate(1256.234375 0)"/>
     <use xlink:href="#DejaVuSans-Bold-3" transform="translate(1327.421875 0)"/>
     <use xlink:href="#DejaVuSans-Bold-57" transform="translate(1362.234375 0)"/>
     <use xlink:href="#DejaVuSans-Bold-4b" transform="translate(1410.03125 0)"/>
     <use xlink:href="#DejaVuSans-Bold-44" transform="translate(1481.21875 0)"/>
     <use xlink:href="#DejaVuSans-Bold-57" transform="translate(1548.703125 0)"/>
     <use xlink:href="#DejaVuSans-Bold-3" transform="translate(1596.5 0)"/>
     <use xlink:href="#DejaVuSans-Bold-4c" transform="translate(1631.3125 0)"/>
     <use xlink:href="#DejaVuSans-Bold-50" transform="translate(1665.59375 0)"/>
     <use xlink:href="#DejaVuSans-Bold-53" transform="translate(1769.796875 0)"/>
     <use xlink:href="#DejaVuSans-Bold-55" transform="translate(1841.375 0)"/>
     <use xlink:href="#DejaVuSans-Bold-52" transform="translate(1890.6875 0)"/>
     <use xlink:href="#DejaVuSans-Bold-59" transform="translate(1959.390625 0)"/>
     <use xlink:href="#DejaVuSans-Bold-48" transform="translate(2024.578125 0)"/>
     <use xlink:href="#DejaVuSans-Bold-56" transform="translate(2092.40625 0)"/>
     <use xlink:href="#DejaVuSans-Bold-3" transform="translate(2151.921875 0)"/>
     <use xlink:href="#DejaVuSans-Bold-5a" transform="translate(2186.734375 0)"/>
     <use xlink:href="#DejaVuSans-Bold-4c" transform="translate(2279.125 0)"/>
     <use xlink:href="#DejaVuSans-Bold-57" transform="translate(2313.40625 0)"/>
     <use xlink:href="#DejaVuSans-Bold-4b" transform="translate(2361.203125 0)"/>
     <use xlink:href="#DejaVuSans-Bold-52" transform="translate(2432.390625 0)"/>
     <use xlink:href="#DejaVuSans-Bold-58" transform="translate(2501.09375 0)"/>
     <use xlink:href="#DejaVuSans-Bold-57" transform="translate(2572.28125 0)"/>
     <use xlink:href="#DejaVuSans-Bold-3" transform="translate(2620.078125 0)"/>
     <use xlink:href="#DejaVuSans-Bold-55" transform="translate(2654.890625 0)"/>
     <use xlink:href="#DejaVuSans-Bold-48" transform="translate(2704.203125 0)"/>
     <use xlink:href="#DejaVuSans-Bold-4a" transform="translate(2772.03125 0)"/>
     <use xlink:href="#DejaVuSans-Bold-55" transform="translate(2843.609375 0)"/>
     <use xlink:href="#DejaVuSans-Bold-48" transform="translate(2892.921875 0)"/>
     <use xlink:href="#DejaVuSans-Bold-56" transform="translate(2960.75 0)"/>
     <use xlink:href="#DejaVuSans-Bold-56" transform="translate(3020.265625 0)"/>
     <use xlink:href="#DejaVuSans-Bold-4c" transform="translate(3079.78125 0)"/>
     <use xlink:href="#DejaVuSans-Bold-51" transform="translate(3114.0625 0)"/>
     <use xlink:href="#DejaVuSans-Bold-4a" transform="translate(3185.25 0)"/>
     <use xlink:href="#DejaVuSans-Bold-22" transform="translate(3256.828125 0)"/>
    </g>
    <!-- (validated, 5 repetitions, bootstrap 95 % CI) -->
    <g style="fill: #1b2a49" transform="translate(308.073594 36.043008) scale(0.14 -0.14)">
     <defs>
      <path id="DejaVuSans-Bold-b" d="M 2413 -844 
L 1484 -844 
Q 1006 -72 778 623 
Q 550 1319 550 2003 
Q 550 2688 779 3389 
Q 1009 4091 1484 4856 
L 2413 4856 
Q 2013 4116 1813 3408 
Q 1613 2700 1613 2009 
Q 1613 1319 1811 609 
Q 2009 -100 2413 -844 
z
" transform="scale(0.015625)"/>
      <path id="DejaVuSans-Bold-f" d="M 653 1209 
L 1778 1209 
L 1778 256 
L 1006 -909 
L 341 -909 
L 653 256 
L 653 1209 
z
" transform="scale(0.015625)"/>
      <path id="DejaVuSans-Bold-18" d="M 678 4666 
L 3669 4666 
L 3669 3781 
L 1638 3781 
L 1638 3059 
Q 1775 3097 1914 3117 
Q 2053 3138 2203 3138 
Q 3056 3138 3531 2711 
Q 4006 2284 4006 1522 
Q 4006 766 3489 337 
Q 2972 -91 2053 -91 
Q 1656 -91 1267 -14 
Q 878 63 494 219 
L 494 1166 
Q 875 947 1217 837 
Q 1559 728 1863 728 
Q 2300 728 2551 942 
Q 2803 1156 2803 1522 
Q 2803 1891 2551 2103 
Q 2300 2316 1863 2316 
Q 1603 2316 1309 2248 
Q 1016 2181 678 2041 
L 678 4666 
z
" transform="scale(0.015625)"/>
      <path id="DejaVuSans-Bold-45" d="M 2400 722 
Q 2759 722 2948 984 
Q 3138 1247 3138 1747 
Q 3138 2247 2948 2509 
Q 2759 2772 2400 2772 
Q 2041 2772 1848 2508 
Q 1656 2244 1656 1747 
Q 1656 1250 1848 986 
Q 2041 722 2400 722 
z
M 1656 2988 
Q 1888 3294 2169 3439 
Q 2450 3584 2816 3584 
Q 3463 3584 3878 3070 
Q 4294 2556 4294 1747 
Q 4294 938 3878 423 
Q 3463 -91 2816 -91 
Q 2450 -91 2169 54 
Q 1888 200 1656 506 
L 1656 0 
L 538 0 
L 538 4863 
L 1656 4863 
L 1656 2988 
z
" transform="scale(0.015625)"/>
      <path id="DejaVuSans-Bold-1c" d="M 641 103 
L 641 966 
Q 928 831 1190 764 
Q 1453 697 1709 697 
Q 2247 697 2547 995 
Q 2847 1294 2900 1881 
Q 2688 1725 2447 1647 
Q 2206 1569 1925 1569 
Q 1209 1569 770 1986 
Q 331 2403 331 3084 
Q 331 3838 820 4291 
Q 1309 4744 2131 4744 
Q 3044 4744 3544 4128 
Q 4044 3513 4044 2388 
Q 4044 1231 3459 570 
Q 2875 -91 1856 -91 
Q 1528 -91 1228 -42 
Q 928 6 641 103 
z
M 2125 2350 
Q 2441 2350 2600 2554 
Q 2759 2759 2759 3169 
Q 2759 3575 2600 3781 
Q 2441 3988 2125 3988 
Q 1809 3988 1650 3781 
Q 1491 3575 1491 3169 
Q 1491 2759 1650 2554 
Q 1809 2350 2125 2350 
z
" transform="scale(0.015625)"/>
      <path id="DejaVuSans-Bold-8" d="M 4959 1925 
Q 4738 1925 4616 1733 
Q 4494 1541 4494 1184 
Q 4494 825 4614 633 
Q 4734 441 4959 441 
Q 5184 441 5303 633 
Q 5422 825 5422 1184 
Q 5422 1541 5301 1733 
Q 5181 1925 4959 1925 
z
M 4959 2450 
Q 5541 2450 5875 2112 
Q 6209 1775 6209 1184 
Q 6209 594 5875 251 
Q 5541 -91 4959 -91 
Q 4378 -91 4042 251 
Q 3706 594 3706 1184 
Q 3706 1772 4042 2111 
Q 4378 2450 4959 2450 
z
M 2094 -91 
L 1403 -91 
L 4319 4750 
L 5013 4750 
L 2094 -91 
z
M 1453 4750 
Q 2034 4750 2367 4411 
Q 2700 4072 2700 3481 
Q 2700 2891 2367 2550 
Q 2034 2209 1453 2209 
Q 872 2209 539 2550 
Q 206 2891 206 3481 
Q 206 4072 539 4411 
Q 872 4750 1453 4750 
z
M 1453 4225 
Q 1228 4225 1106 4031 
Q 984 3838 984 3481 
Q 984 3122 1106 2926 
Q 1228 2731 1453 2731 
Q 1678 2731 1798 2926 
Q 1919 3122 1919 3481 
Q 1919 3838 1797 4031 
Q 1675 4225 1453 4225 
z
" transform="scale(0.015625)"/>
      <path id="DejaVuSans-Bold-26" d="M 4288 256 
Q 3956 84 3597 -3 
Q 3238 -91 2847 -91 
Q 1681 -91 1000 561 
Q 319 1213 319 2328 
Q 319 3447 1000 4098 
Q 1681 4750 2847 4750 
Q 3238 4750 3597 4662 
Q 3956 4575 4288 4403 
L 4288 3438 
Q 3953 3666 3628 3772 
Q 3303 3878 2944 3878 
Q 2300 3878 1931 3465 
Q 1563 3053 1563 2328 
Q 1563 1606 1931 1193 
Q 2300 781 2944 781 
Q 3303 781 3628 887 
Q 3953 994 4288 1222 
L 4288 256 
z
" transform="scale(0.015625)"/>
      <path id="DejaVuSans-Bold-c" d="M 513 -844 
Q 913 -100 1113 609 
Q 1313 1319 1313 2009 
Q 1313 2700 1113 3408 
Q 913 4116 513 4856 
L 1441 4856 
Q 1916 4091 2145 3389 
Q 2375 2688 2375 2003 
Q 2375 1319 2147 623 
Q 1919 -72 1441 -844 
L 513 -844 
z
" transform="scale(0.015625)"/>
     </defs>
     <use xlink:href="#DejaVuSans-Bold-b"/>
     <use xlink:href="#DejaVuSans-Bold-59" transform="translate(45.703125 0)"/>
     <use xlink:href="#DejaVuSans-Bold-44" transform="translate(110.890625 0)"/>
     <use xlink:href="#DejaVuSans-Bold-4f" transform="translate(178.375 0)"/>
     <use xlink:href="#DejaVuSans-Bold-4c" transform="translate(212.65625 0)"/>
     <use xlink:href="#DejaVuSans-Bold-47" transform="translate(246.9375 0)"/>
     <use xlink:href="#DejaVuSans-Bold-44" transform="translate(318.515625 0)"/>
     <use xlink:href="#DejaVuSans-Bold-57" transform="translate(386 0)"/>
     <use xlink:href="#DejaVuSans-Bold-48" transform="translate(433.796875 0)"/>
     <use xlink:href="#DejaVuSans-Bold-47" transform="translate(501.625 0)"/>
     <use xlink:href="#DejaVuSans-Bold-f" transform="translate(573.203125 0)"/>
     <use xlink:href="#DejaVuSans-Bold-3" transform="translate(611.1875 0)"/>
     <use xlink:href="#DejaVuSans-Bold-18" transform="translate(646 0)"/>
     <use xlink:href="#DejaVuSans-Bold-3" transform="translate(715.578125 0)"/>
     <use xlink:href="#DejaVuSans-Bold-55" transform="translate(750.390625 0)"/>
     <use xlink:href="#DejaVuSans-Bold-48" transform="translate(799.703125 0)"/>
     <use xlink:href="#DejaVuSans-Bold-53" transform="translate(867.53125 0)"/>
     <use xlink:href="#DejaVuSans-Bold-48" transform="translate(939.109375 0)"/>
     <use xlink:href="#DejaVuSans-Bold-57" transform="translate(1006.9375 0)"/>
     <use xlink:href="#DejaVuSans-Bold-4c" transform="translate(1054.734375 0)"/>
     <use xlink:href="#DejaVuSans-Bold-57" transform="translate(1089.015625 0)"/>
     <use xlink:href="#DejaVuSans-Bold-4c" transform="translate(1136.8125 0)"/>
     <use xlink:href="#DejaVuSans-Bold-52" transform="translate(1171.09375 0)"/>
     <use xlink:href="#DejaVuSans-Bold-51" transform="translate(1239.796875 0)"/>
     <use xlink:href="#DejaVuSans-Bold-56" transform="translate(1310.984375 0)"/>
     <use xlink:href="#DejaVuSans-Bold-f" transform="translate(1370.5 0)"/>
     <use xlink:href="#DejaVuSans-Bold-3" transform="translate(1408.484375 0)"/>
     <use xlink:href="#DejaVuSans-Bold-45" transform="translate(1443.296875 0)"/>
     <use xlink:href="#DejaVuSans-Bold-52" transform="translate(1514.875 0)"/>
     <use xlink:href="#DejaVuSans-Bold-52" transform="translate(1583.578125 0)"/>
     <use xlink:href="#DejaVuSans-Bold-57" transform="translate(1652.28125 0)"/>
     <use xlink:href="#DejaVuSans-Bold-56" transform="translate(1700.078125 0)"/>
     <use xlink:href="#DejaVuSans-Bold-57" transform="translate(1759.59375 0)"/>
     <use xlink:href="#DejaVuSans-Bold-55" transform="translate(1807.390625 0)"/>
     <use xlink:href="#DejaVuSans-Bold-44" transform="translate(1856.703125 0)"/>
     <use xlink:href="#DejaVuSans-Bold-53" transform="translate(1924.1875 0)"/>
     <use xlink:href="#DejaVuSans-Bold-3" transform="translate(1995.765625 0)"/>
     <use xlink:href="#DejaVuSans-Bold-1c" transform="translate(2030.578125 0)"/>
     <use xlink:href="#DejaVuSans-Bold-18" transform="translate(2100.15625 0)"/>
     <use xlink:href="#DejaVuSans-Bold-3" transform="translate(2169.734375 0)"/>
     <use xlink:href="#DejaVuSans-Bold-8" transform="translate(2204.546875 0)"/>
     <use xlink:href="#DejaVuSans-Bold-3" transform="translate(2304.75 0)"/>
     <use xlink:href="#DejaVuSans-Bold-26" transform="translate(2339.5625 0)"/>
     <use xlink:href="#DejaVuSans-Bold-2c" transform="translate(2412.953125 0)"/>
     <use xlink:href="#DejaVuSans-Bold-c" transform="translate(2450.15625 0)"/>
    </g>
   </g>
  </g>
  <g id="text_26">
   <!-- source: results/2026-07-26_alternative_objectives -->
   <g style="fill: #7c8698" transform="translate(7.2 699.888267) scale(0.075 -0.075)">
    <defs>
     <path id="DejaVuSans-1d" d="M 750 794 
L 1409 794 
L 1409 0 
L 750 0 
L 750 794 
z
M 750 3309 
L 1409 3309 
L 1409 2516 
L 750 2516 
L 750 3309 
z
" transform="scale(0.015625)"/>
     <path id="DejaVuSans-12" d="M 1625 4666 
L 2156 4666 
L 531 -594 
L 0 -594 
L 1625 4666 
z
" transform="scale(0.015625)"/>
     <path id="DejaVuSans-13" d="M 2034 4250 
Q 1547 4250 1301 3770 
Q 1056 3291 1056 2328 
Q 1056 1369 1301 889 
Q 1547 409 2034 409 
Q 2525 409 2770 889 
Q 3016 1369 3016 2328 
Q 3016 3291 2770 3770 
Q 2525 4250 2034 4250 
z
M 2034 4750 
Q 2819 4750 3233 4129 
Q 3647 3509 3647 2328 
Q 3647 1150 3233 529 
Q 2819 -91 2034 -91 
Q 1250 -91 836 529 
Q 422 1150 422 2328 
Q 422 3509 836 4129 
Q 1250 4750 2034 4750 
z
" transform="scale(0.015625)"/>
     <path id="DejaVuSans-19" d="M 2113 2584 
Q 1688 2584 1439 2293 
Q 1191 2003 1191 1497 
Q 1191 994 1439 701 
Q 1688 409 2113 409 
Q 2538 409 2786 701 
Q 3034 994 3034 1497 
Q 3034 2003 2786 2293 
Q 2538 2584 2113 2584 
z
M 3366 4563 
L 3366 3988 
Q 3128 4100 2886 4159 
Q 2644 4219 2406 4219 
Q 1781 4219 1451 3797 
Q 1122 3375 1075 2522 
Q 1259 2794 1537 2939 
Q 1816 3084 2150 3084 
Q 2853 3084 3261 2657 
Q 3669 2231 3669 1497 
Q 3669 778 3244 343 
Q 2819 -91 2113 -91 
Q 1303 -91 875 529 
Q 447 1150 447 2328 
Q 447 3434 972 4092 
Q 1497 4750 2381 4750 
Q 2619 4750 2861 4703 
Q 3103 4656 3366 4563 
z
" transform="scale(0.015625)"/>
     <path id="DejaVuSans-1a" d="M 525 4666 
L 3525 4666 
L 3525 4397 
L 1831 0 
L 1172 0 
L 2766 4134 
L 525 4134 
L 525 4666 
z
" transform="scale(0.015625)"/>
     <path id="DejaVuSans-42" d="M 3263 -1063 
L 3263 -1509 
L -63 -1509 
L -63 -1063 
L 3263 -1063 
z
" transform="scale(0.015625)"/>
     <path id="DejaVuSans-59" d="M 191 3500 
L 800 3500 
L 1894 563 
L 2988 3500 
L 3597 3500 
L 2284 0 
L 1503 0 
L 191 3500 
z
" transform="scale(0.015625)"/>
     <path id="DejaVuSans-4d" d="M 603 3500 
L 1178 3500 
L 1178 -63 
Q 1178 -731 923 -1031 
Q 669 -1331 103 -1331 
L -116 -1331 
L -116 -844 
L 38 -844 
Q 366 -844 484 -692 
Q 603 -541 603 -63 
L 603 3500 
z
M 603 4863 
L 1178 4863 
L 1178 4134 
L 603 4134 
L 603 4863 
z
" transform="scale(0.015625)"/>
    </defs>
    <use xlink:href="#DejaVuSans-56"/>
    <use xlink:href="#DejaVuSans-52" transform="translate(52.09375 0)"/>
    <use xlink:href="#DejaVuSans-58" transform="translate(113.28125 0)"/>
    <use xlink:href="#DejaVuSans-55" transform="translate(176.65625 0)"/>
    <use xlink:href="#DejaVuSans-46" transform="translate(215.5625 0)"/>
    <use xlink:href="#DejaVuSans-48" transform="translate(270.546875 0)"/>
    <use xlink:href="#DejaVuSans-1d" transform="translate(332.078125 0)"/>
    <use xlink:href="#DejaVuSans-3" transform="translate(365.765625 0)"/>
    <use xlink:href="#DejaVuSans-55" transform="translate(397.546875 0)"/>
    <use xlink:href="#DejaVuSans-48" transform="translate(436.453125 0)"/>
    <use xlink:href="#DejaVuSans-56" transform="translate(497.984375 0)"/>
    <use xlink:href="#DejaVuSans-58" transform="translate(550.078125 0)"/>
    <use xlink:href="#DejaVuSans-4f" transform="translate(613.453125 0)"/>
    <use xlink:href="#DejaVuSans-57" transform="translate(641.234375 0)"/>
    <use xlink:href="#DejaVuSans-56" transform="translate(680.4375 0)"/>
    <use xlink:href="#DejaVuSans-12" transform="translate(732.53125 0)"/>
    <use xlink:href="#DejaVuSans-15" transform="translate(766.21875 0)"/>
    <use xlink:href="#DejaVuSans-13" transform="translate(829.84375 0)"/>
    <use xlink:href="#DejaVuSans-15" transform="translate(893.46875 0)"/>
    <use xlink:href="#DejaVuSans-19" transform="translate(957.09375 0)"/>
    <use xlink:href="#DejaVuSans-10" transform="translate(1020.71875 0)"/>
    <use xlink:href="#DejaVuSans-13" transform="translate(1056.796875 0)"/>
    <use xlink:href="#DejaVuSans-1a" transform="translate(1120.421875 0)"/>
    <use xlink:href="#DejaVuSans-10" transform="translate(1184.046875 0)"/>
    <use xlink:href="#DejaVuSans-15" transform="translate(1220.125 0)"/>
    <use xlink:href="#DejaVuSans-19" transform="translate(1283.75 0)"/>
    <use xlink:href="#DejaVuSans-42" transform="translate(1347.375 0)"/>
    <use xlink:href="#DejaVuSans-44" transform="translate(1397.375 0)"/>
    <use xlink:href="#DejaVuSans-4f" transform="translate(1458.65625 0)"/>
    <use xlink:href="#DejaVuSans-57" transform="translate(1486.4375 0)"/>
    <use xlink:href="#DejaVuSans-48" transform="translate(1525.640625 0)"/>
    <use xlink:href="#DejaVuSans-55" transform="translate(1587.171875 0)"/>
    <use xlink:href="#DejaVuSans-51" transform="translate(1626.53125 0)"/>
    <use xlink:href="#DejaVuSans-44" transform="translate(1689.90625 0)"/>
    <use xlink:href="#DejaVuSans-57" transform="translate(1751.1875 0)"/>
    <use xlink:href="#DejaVuSans-4c" transform="translate(1790.390625 0)"/>
    <use xlink:href="#DejaVuSans-59" transform="translate(1818.171875 0)"/>
    <use xlink:href="#DejaVuSans-48" transform="translate(1877.359375 0)"/>
    <use xlink:href="#DejaVuSans-42" transform="translate(1938.890625 0)"/>
    <use xlink:href="#DejaVuSans-52" transform="translate(1988.890625 0)"/>
    <use xlink:href="#DejaVuSans-45" transform="translate(2050.078125 0)"/>
    <use xlink:href="#DejaVuSans-4d" transform="translate(2113.5625 0)"/>
    <use xlink:href="#DejaVuSans-48" transform="translate(2141.34375 0)"/>
    <use xlink:href="#DejaVuSans-46" transform="translate(2202.875 0)"/>
    <use xlink:href="#DejaVuSans-57" transform="translate(2257.859375 0)"/>
    <use xlink:href="#DejaVuSans-4c" transform="translate(2297.0625 0)"/>
    <use xlink:href="#DejaVuSans-59" transform="translate(2324.84375 0)"/>
    <use xlink:href="#DejaVuSans-48" transform="translate(2384.03125 0)"/>
    <use xlink:href="#DejaVuSans-56" transform="translate(2445.5625 0)"/>
   </g>
  </g>
 </g>
 <defs>
  <clipPath id="pa8c4211bc1">
   <rect x="183.2875" y="42.043008" width="598.9925" height="647.71918"/>
  </clipPath>
 </defs>
</svg>
